<?xml version="1.0" encoding="utf-8"?>
<!-- Generator: Adobe Illustrator 16.0.0, SVG Export Plug-In . SVG Version: 6.00 Build 0)  -->
<!DOCTYPE svg PUBLIC "-//W3C//DTD SVG 1.1//EN" "http://www.w3.org/Graphics/SVG/1.1/DTD/svg11.dtd">
<svg version="1.1" id="Layer_1" xmlns="http://www.w3.org/2000/svg" xmlns:xlink="http://www.w3.org/1999/xlink" x="0px" y="0px"
	 width="100px" height="100px" viewBox="0 0 100 100" enable-background="new 0 0 100 100" xml:space="preserve">
<g>
	<g>
		<path fill="#EA9C37" d="M66.913,55.171c3.235,2.2,7.467,3.716,13.257,3.468c5.693-0.246,9.712-2.182,12.813-4.59l0.096,2.207
			c-2.568,2.129-6.569,4.48-12.807,4.75c-6.303,0.238-10.489-1.729-13.264-3.628L66.913,55.171z"/>
	</g>
</g>
<g>
	<g>
		<path fill="#EA9C37" d="M76.338,25.655c-3.904-0.264-8.322,0.564-13.193,3.704c-4.789,3.087-7.279,6.787-8.74,10.433l-1.196-1.856
			c1.142-3.136,3.406-7.186,8.653-10.567c5.319-3.391,9.926-3.808,13.279-3.569L76.338,25.655z"/>
	</g>
</g>
<g>
	<g>
		<path fill="#FFFFFF" d="M71.907,53.299c-5.093-3.463-11.632-6.528-21.547-8.672c-9.752-2.107-16.774-1.889-22.88-0.931
			l0.265-1.224c5.071-0.896,12.261-1.365,22.935,0.942c10.728,2.319,17.137,5.726,21.492,8.66L71.907,53.299z"/>
	</g>
</g>
<g>
	<g>
		<path fill="#FFFFFF" d="M47.563,44.381c-2.563-1.241-5.714-3.354-8.678-7.952c-2.95-4.576-3.557-8.294-3.6-11.095l0.802-0.517
			c0.133,3.334,0.889,6.891,3.583,11.071c2.74,4.252,5.674,6.535,8.693,7.976L47.563,44.381z"/>
	</g>
</g>
<g>
	<g>
		<path fill="#FFFFFF" d="M22.82,35.26c1.278,0.176,2.93,0.643,4.85,2.207c1.91,1.557,2.693,3.071,3.104,4.271L30.5,42.072
			c-0.523-1.416-1.347-2.841-3.093-4.263c-1.774-1.446-3.356-2.019-4.858-2.215L22.82,35.26z"/>
	</g>
</g>
<g>
	<g>
		<path fill="#FFFFFF" d="M29.495,50.484c0.175-1.277,0.643-2.929,2.206-4.85c1.557-1.91,3.072-2.691,4.271-3.103l0.335,0.272
			c-1.417,0.524-2.841,1.348-4.263,3.094c-1.446,1.774-2.018,3.357-2.215,4.859L29.495,50.484z"/>
	</g>
</g>
<g>
	<g>
		<path fill="#EA9C37" d="M51.246,41.023c-0.387-3.894-1.936-8.113-5.839-12.396c-3.839-4.213-7.901-6.056-11.737-6.891l1.633-1.488
			c3.28,0.605,7.65,2.168,11.855,6.782c4.225,4.684,5.4,9.157,5.721,12.504L51.246,41.023z"/>
	</g>
</g>
<g>
	<g>
		<path fill="#EA9C37" d="M56.038,71.307c2.138-0.601,4.661-2.017,7.144-4.723c2.442-2.66,3.607-5.295,4.051-7.479l1.602,1.471
			c-0.252,1.913-1.189,4.756-3.866,7.674c-2.706,2.919-5.429,4.096-7.327,4.526L56.038,71.307z"/>
	</g>
</g>
<g>
	<g>
		<path fill="#EA9C37" d="M54.985,74.586c-2.138,0.602-4.661,2.018-7.145,4.723c-2.44,2.66-3.606,5.295-4.05,7.479l-1.602-1.471
			c0.252-1.912,1.189-4.756,3.866-7.674c2.706-2.918,5.429-4.096,7.327-4.526L54.985,74.586z"/>
	</g>
</g>
<g>
	<g>
		<path fill="#EA9C37" d="M28.361,68.328c-1.391-1.189-3.148-3.332-4.164-6.832c-0.992-3.486-0.578-6.133,0.016-7.743l1.939-0.432
			c-0.547,1.907-0.687,4.493,0.219,7.672c0.92,3.233,2.414,5.474,3.93,6.903L28.361,68.328z"/>
	</g>
</g>
<g>
	<g>
		<path fill="#EA9C37" d="M30.969,70.348c1.718,0.627,4.114,2.021,6.289,4.945c2.146,2.92,2.684,5.545,2.691,7.262l-1.668,1.082
			c-0.154-1.979-0.926-4.449-2.885-7.113c-1.991-2.707-4.174-4.285-6.094-5.094L30.969,70.348z"/>
	</g>
</g>
<g>
	<g>
		<path fill="#EA9C37" d="M15.346,48.465c0.866,1.232,2.34,2.529,4.631,3.509c2.254,0.963,4.201,1.114,5.698,0.907l-0.579,1.356
			c-1.281,0.27-3.313,0.31-5.783-0.746c-2.477-1.075-3.844-2.552-4.547-3.669L15.346,48.465z"/>
	</g>
</g>
<g>
	<g>
		<path fill="#EA9C37" d="M13.009,48.529c-0.866-1.234-2.34-2.529-4.631-3.51c-2.253-0.963-4.201-1.113-5.698-0.906l0.58-1.357
			c1.281-0.27,3.312-0.31,5.781,0.746c2.479,1.075,3.845,2.553,4.548,3.67L13.009,48.529z"/>
	</g>
</g>
<g>
	<g>
		<path fill="#EA9C37" d="M15.068,31.116c0.996-1.073,2.768-2.413,5.601-3.114c2.821-0.683,4.926-0.267,6.196,0.259l0.283,1.566
			c-1.509-0.498-3.574-0.693-6.146-0.07c-2.616,0.634-4.457,1.76-5.649,2.927L15.068,31.116z"/>
	</g>
</g>
<g>
	<g>
		<path fill="#EA9C37" d="M13.367,33.142c-0.558,1.354-1.75,3.228-4.158,4.874c-2.405,1.627-4.523,1.973-5.896,1.924L2.499,38.57
			c1.589-0.061,3.591-0.6,5.784-2.082c2.229-1.509,3.562-3.205,4.271-4.716L13.367,33.142z"/>
	</g>
</g>
<g>
	<g>
		<path fill="#EA9C37" d="M36.282,21.301c-0.558,1.354-1.749,3.228-4.159,4.874c-2.404,1.627-4.521,1.973-5.896,1.924l-0.813-1.369
			c1.588-0.061,3.592-0.6,5.784-2.082c2.229-1.508,3.562-3.205,4.271-4.716L36.282,21.301z"/>
	</g>
</g>
<g>
	<g>
		<path fill="#FFFFFF" d="M57.847,62.02c-1.56,0.219-3.718,0.189-6.273-1.131c-2.522-1.32-3.668-3.037-4.269-4.387l0.518-0.863
			c0.761,1.564,2.004,3.119,4.307,4.324c2.341,1.227,4.42,1.443,6.236,1.193L57.847,62.02z"/>
	</g>
</g>
<g>
	<g>
		<path fill="#EA9C37" d="M84.005,39.456c-1.53-0.897-3.576-2.645-5.144-5.812c-1.543-3.159-1.6-5.757-1.308-7.396l1.779-0.744
			c-0.196,1.915,0.111,4.407,1.519,7.288c1.431,2.93,3.24,4.814,4.934,5.92L84.005,39.456z"/>
	</g>
</g>
<g>
	<g>
		<path fill="#EA9C37" d="M86.842,40.941c1.747,0.307,4.273,1.229,6.85,3.648c2.549,2.421,3.51,4.836,3.81,6.473l-1.407,1.319
			c-0.484-1.862-1.645-4.091-3.969-6.298c-2.365-2.246-4.719-3.379-6.691-3.823L86.842,40.941z"/>
	</g>
</g>
<g>
	<g>
		<path fill="#FFFFFF" d="M50.861,41.883L51.93,42.2l-6.492,21.831l-1.069-0.318L50.861,41.883z"/>
	</g>
</g>
<g>
	<g>
		<path fill="#FFFFFF" d="M34.999,55.604c1.378-0.762,3.404-1.506,6.264-1.186c2.827,0.332,4.511,1.525,5.555,2.572l-0.175,0.99
			c-1.27-1.189-2.986-2.197-5.568-2.5c-2.624-0.307-4.644,0.232-6.25,1.114L34.999,55.604z"/>
	</g>
</g>
<g>
	<g>
		<path fill="#FFFFFF" d="M53.521,44.474c3.118-0.237,6.494-1.281,10.478-4.204c3.917-2.875,5.95-5.874,7.37-8.894l0.475,0.764
			c-1.133,2.562-3.104,5.763-7.392,8.909c-4.31,3.162-7.802,3.971-10.456,4.188L53.521,44.474z"/>
	</g>
</g>
<g>
	<g>
		<path fill="#FFFFFF" d="M77.385,43.824c-1.381,0.197-2.836,0.77-4.468,2.215c-1.604,1.422-2.362,2.848-2.845,4.264l-0.25-0.334
			c0.377-1.2,1.097-2.715,2.854-4.271c1.766-1.564,3.284-2.033,4.459-2.207L77.385,43.824z"/>
	</g>
</g>
<g>
	<g>
		<path fill="#FFFFFF" d="M48.236,73.447c0.645-1.367,1.039-2.989,0.855-5.199c-0.18-2.174-0.852-3.567-1.677-4.703l0.405-0.068
			c0.717,0.934,1.48,2.338,1.679,4.717c0.198,2.391-0.315,4.02-0.857,5.188L48.236,73.447z"/>
	</g>
</g>
</svg>
