<?xml version="1.0" encoding="utf-8"?>
<!-- Generator: Adobe Illustrator 16.0.0, SVG Export Plug-In . SVG Version: 6.00 Build 0)  -->
<!DOCTYPE svg PUBLIC "-//W3C//DTD SVG 1.1//EN" "http://www.w3.org/Graphics/SVG/1.1/DTD/svg11.dtd">
<svg version="1.1" id="Layer_1" xmlns="http://www.w3.org/2000/svg" xmlns:xlink="http://www.w3.org/1999/xlink" x="0px" y="0px"
	 width="100px" height="100px" viewBox="0 0 100 100" enable-background="new 0 0 100 100" xml:space="preserve">
<g>
	<g>
		<path fill="#ED9D37" d="M50.895,39.898c1.289-1.453,4.189-3.565,8.324-5.244c9.577-3.891,19.224-0.819,23.712,10.231
			c4.284,10.551-0.02,20.628-10.555,24.907c-4.235,1.72-7.273,1.907-8.675,1.777l-0.385-3.979c1.989,0.124,4.603-0.239,7.425-1.386
			c7.966-3.234,11.208-10.435,7.612-19.284c-3.351-8.251-10.292-11.605-18.559-8.248c-2.673,1.085-5.172,2.74-6.591,4.307
			L50.895,39.898z"/>
	</g>
	<g>
		<path fill="#FFFFFF" d="M73.596,52.684c0,7.256-4.445,11.103-9.868,11.103c-5.611,0-9.552-4.317-9.552-10.696
			c0-6.693,4.193-11.071,9.868-11.071C69.843,42.02,73.596,46.43,73.596,52.684z M57.107,53.028c0,4.504,2.459,8.539,6.779,8.539
			c4.349,0,6.809-3.973,6.809-8.758c0-4.191-2.207-8.569-6.778-8.569C59.377,44.24,57.107,48.399,57.107,53.028z"/>
	</g>
	<g>
		<path fill="#FFFFFF" d="M58.746,50.426c0-4.432,3.02-7.546,7.245-7.546s7.123,3.114,7.123,7.546c0,4.311-2.776,7.544-7.245,7.544
			C61.645,57.97,58.746,54.736,58.746,50.426z"/>
	</g>
	<g>
		<path fill="#FFFFFF" d="M29.026,59.12c0-3.076,2.096-5.237,5.028-5.237c2.935,0,4.944,2.161,4.944,5.237
			c0,2.992-1.926,5.237-5.027,5.237C31.038,64.357,29.026,62.112,29.026,59.12z"/>
	</g>
	<g>
		<path fill="#FFFFFF" d="M44.875,54.413c0-0.828,0.563-1.408,1.352-1.408c0.787,0,1.306,0.581,1.327,1.408
			c0,0.783-0.517,1.386-1.35,1.386C45.416,55.799,44.875,55.196,44.875,54.413z M44.875,62.302c0-0.828,0.563-1.407,1.352-1.407
			c0.787,0,1.306,0.58,1.327,1.407c0,0.782-0.517,1.386-1.35,1.386C45.416,63.688,44.875,63.084,44.875,62.302z"/>
	</g>
	<g>
		<path fill="#FFFFFF" d="M54.512,70.899c0-1.644,1.12-2.8,2.689-2.8s2.643,1.156,2.643,2.8c0,1.6-1.029,2.8-2.688,2.8
			C55.587,73.699,54.512,72.499,54.512,70.899z"/>
	</g>
	<g>
		<path fill="#FFFFFF" d="M20.478,77.588c7.377,5.541,17.16,9.562,30.782,9.562c13.396,0,23.029-4.174,30.556-9.562v5.237
			c-6.245,4.781-15.88,9.942-30.556,9.942c-14.826-0.076-24.459-5.161-30.782-9.942V77.588z"/>
	</g>
	<g>
		<path fill="#FFFFFF" d="M60.1,15.385c-2.475-1.386-6.031-2.378-10.705-2.153c-4.598,0.221-8.014,1.573-10.373,3.166l-0.134-2.792
			c1.942-1.52,5.341-3.266,10.381-3.508c5.069-0.216,8.593,1.17,10.698,2.496L60.1,15.385z"/>
	</g>
	<g>
		<path fill="#ED9D37" d="M26.915,51.667c-1.385,2.477-2.376,6.031-2.152,10.707c0.222,4.597,1.573,8.014,3.165,10.372l-2.792,0.136
			c-1.519-1.944-3.265-5.342-3.506-10.383c-0.218-5.067,1.17-8.59,2.494-10.695L26.915,51.667z"/>
	</g>
	<g>
		<path fill="#ED9D37" d="M30.551,71.759c2.481,1.801,5.755,3.086,10.283,3.013c4.451-0.071,7.632-1.513,10.104-3.342l0.028,1.739
			c-2.051,1.624-5.225,3.389-10.102,3.468c-4.929,0.054-8.156-1.583-10.284-3.138L30.551,71.759z"/>
	</g>
</g>
</svg>
