<?xml version="1.0" encoding="utf-8"?>
<!-- Generator: Adobe Illustrator 16.0.0, SVG Export Plug-In . SVG Version: 6.00 Build 0)  -->
<!DOCTYPE svg PUBLIC "-//W3C//DTD SVG 1.1//EN" "http://www.w3.org/Graphics/SVG/1.1/DTD/svg11.dtd">
<svg version="1.1" id="Layer_1" xmlns="http://www.w3.org/2000/svg" xmlns:xlink="http://www.w3.org/1999/xlink" x="0px" y="0px"
	 width="100px" height="100px" viewBox="0 0 100 100" enable-background="new 0 0 100 100" xml:space="preserve">
<g>
	<path fill="#FFFFFF" d="M30.78,20.272c5.053,3.124,11.917,5.729,21.749,6.767c9.669,1.021,16.824-0.174,22.519-2.093l-0.255,2.422
		c-4.742,1.734-11.946,3.386-22.537,2.268c-10.698-1.165-17.403-4.25-21.731-6.942L30.78,20.272z"/>
</g>
<g>
	<path fill="#FFFFFF" d="M30.725,78.126c1.613,2.702,4.207,5.602,8.579,8.488c4.299,2.838,7.957,4.021,11.104,4.508l-0.711,1.077
		c-2.654-0.34-6.445-1.321-11.155-4.431c-4.747-3.156-7.148-6.243-8.527-8.565L30.725,78.126z"/>
</g>
<g>
	<path fill="#FFFFFF" d="M12.638,47.795c0.005,3.147,0.751,6.966,3.03,11.681c2.243,4.639,4.781,7.525,7.236,9.553l-1.162,0.562
		c-2.105-1.649-4.862-4.431-7.319-9.512c-2.464-5.14-2.949-9.021-2.947-11.722L12.638,47.795z"/>
</g>
<g>
	<path fill="#FFFFFF" d="M80.916,74.983c1.536-1.251,3.108-3.13,4.509-6.116c1.381-2.936,1.786-5.323,1.804-7.328l0.734,0.345
		c0.029,1.685-0.237,4.137-1.748,7.353c-1.537,3.245-3.242,5.021-4.564,6.092L80.916,74.983z"/>
</g>
<g>
	<path fill="#FFFFFF" d="M59.592,90.731c3.058-0.747,6.593-2.37,10.639-5.697c3.98-3.271,6.188-6.418,7.58-9.282l0.819,0.997
		c-1.107,2.436-3.161,5.77-7.52,9.354c-4.417,3.606-8.073,4.992-10.698,5.625L59.592,90.731z"/>
</g>
<g>
	<path fill="#FFFFFF" d="M87.968,52.756c-0.794-1.937-2.201-3.714-4.755-4.855c-2.514-1.123-4.764-0.935-6.747-0.281l0.557-1.248
		c1.68-0.616,4.034-1.039,6.788,0.19c2.771,1.259,4.036,3.277,4.713,4.945L87.968,52.756z"/>
</g>
<g>
	<path fill="#FFFFFF" d="M24.786,44.278c-1.959-0.741-4.218-0.925-6.794,0.165c-2.535,1.071-3.933,2.845-4.809,4.742l-0.532-1.257
		c0.695-1.65,1.993-3.66,4.769-4.834c2.813-1.167,5.151-0.716,6.834-0.072L24.786,44.278z"/>
</g>
<g>
	<path fill="#FFFFFF" d="M42.394,83.454c2.362,1.46,5.573,2.679,10.17,3.165c4.522,0.477,7.869-0.082,10.533-0.979l-0.119,1.132
		c-2.218,0.811-5.588,1.583-10.541,1.06c-5.002-0.544-8.138-1.987-10.163-3.246L42.394,83.454z"/>
</g>
<g>
	<path fill="#EA9C37" d="M30.075,52.617c4.964,3.963,11.765,7.179,21.597,8.217c9.669,1.021,16.892-0.808,22.673-3.542l-0.34,3.215
		c-4.819,2.459-12.105,4.893-22.697,3.775c-10.695-1.176-17.318-5.033-21.571-8.45L30.075,52.617z"/>
</g>
<g>
	<path fill="#EA9C37" d="M31.959,69.928c4.331,3.896,10.294,7.023,18.958,7.938c8.521,0.9,14.917-1.016,20.053-3.819l-0.339,3.215
		c-4.283,2.516-10.744,5.038-20.078,4.052c-9.426-1.042-15.223-4.812-18.933-8.171L31.959,69.928z"/>
</g>
<g>
	<path fill="#FFFFFF" d="M79.716,18.729c-5.79-3.579-13.657-6.564-24.925-7.754c-11.079-1.17-19.28,0.2-25.807,2.397l0.293-2.774
		C34.712,8.61,42.969,6.718,55.106,8c12.259,1.334,19.941,4.87,24.903,7.955L79.716,18.729z"/>
</g>
<g>
	<path fill="#FFFFFF" d="M26.037,19.622l4.868,44.403l-3.996,0.438l-4.87-44.403L26.037,19.622z"/>
</g>
<g>
	<path fill="#FFFFFF" d="M16.827,47.675l23.774,33.231l-2.417,1.729L14.411,49.404L16.827,47.675z"/>
</g>
<g>
	<path fill="#FFFFFF" d="M87.995,59.987L69.586,85.158l-1.675-1.225l18.41-25.171L87.995,59.987z"/>
</g>
<g>
	<path fill="#FFFFFF" d="M81.729,25.398l-5.214,44.364l-3.994-0.47l5.215-44.364L81.729,25.398z"/>
</g>
</svg>
