<?xml version="1.0" encoding="utf-8"?>
<!-- Generator: Adobe Illustrator 16.0.0, SVG Export Plug-In . SVG Version: 6.00 Build 0)  -->
<!DOCTYPE svg PUBLIC "-//W3C//DTD SVG 1.1//EN" "http://www.w3.org/Graphics/SVG/1.1/DTD/svg11.dtd">
<svg version="1.1" id="Layer_1" xmlns="http://www.w3.org/2000/svg" xmlns:xlink="http://www.w3.org/1999/xlink" x="0px" y="0px"
	 width="100px" height="100px" viewBox="0 0 100 100" enable-background="new 0 0 100 100" xml:space="preserve">
<g>
	<path fill="#FFFFFF" d="M34.652,88.947h-5.809V42.082h5.809V88.947z"/>
</g>
<g>
	<path fill="#FFFFFF" d="M71.954,88.947h-5.809V42.082h5.809V88.947z"/>
</g>
<g>
	<path fill="#EA9C37" d="M46.112,9.917l4.941,3.731L31.708,39.263c-7.678,10.166-15.035,9.515-21.623,4.539
		c-1.817-1.372-3.732-3.442-4.596-4.897l3.784-3.475c0.722,1.17,1.941,2.626,3.588,3.869c4.43,3.346,8.543,3.331,14.206-4.165
		L46.112,9.917z"/>
</g>
<g>
	<path fill="#EA9C37" d="M73.642,35.134c5.662,7.496,9.776,7.511,14.206,4.165c1.647-1.243,2.866-2.699,3.588-3.869l3.784,3.475
		c-0.864,1.455-2.778,3.525-4.596,4.897c-6.588,4.976-13.945,5.627-21.623-4.539L49.657,13.648l4.941-3.731L73.642,35.134z"/>
</g>
</svg>
