<?xml version="1.0" encoding="utf-8"?>
<!-- Generator: Adobe Illustrator 16.0.0, SVG Export Plug-In . SVG Version: 6.00 Build 0)  -->
<!DOCTYPE svg PUBLIC "-//W3C//DTD SVG 1.1//EN" "http://www.w3.org/Graphics/SVG/1.1/DTD/svg11.dtd">
<svg version="1.1" id="Layer_1" xmlns="http://www.w3.org/2000/svg" xmlns:xlink="http://www.w3.org/1999/xlink" x="0px" y="0px"
	 width="100px" height="100px" viewBox="0 0 100 100" enable-background="new 0 0 100 100" xml:space="preserve">
<g>
	<g>
		<path fill="#FFFFFF" d="M41.802,71.665c0,3.33-2.306,4.78-4.483,4.78c-2.436,0-4.314-1.786-4.314-4.631
			c0-3.013,1.972-4.78,4.464-4.78C40.054,67.034,41.802,68.912,41.802,71.665z M34.66,71.758c0,1.972,1.134,3.459,2.734,3.459
			c1.563,0,2.734-1.469,2.734-3.496c0-1.525-0.763-3.459-2.697-3.459C35.497,68.262,34.66,70.046,34.66,71.758z"/>
	</g>
	<g>
		<path fill="#FFFFFF" d="M65.722,71.665c0,3.33-2.307,4.78-4.482,4.78c-2.437,0-4.315-1.786-4.315-4.631
			c0-3.013,1.971-4.78,4.464-4.78C63.974,67.034,65.722,68.912,65.722,71.665z M58.58,71.758c0,1.972,1.135,3.459,2.734,3.459
			c1.563,0,2.734-1.469,2.734-3.496c0-1.525-0.762-3.459-2.696-3.459S58.58,70.046,58.58,71.758z"/>
	</g>
	<g>
		<path fill="#FFFFFF" d="M36.776,72.146c0-0.541,0.365-0.921,0.877-0.921c0.511,0,0.862,0.38,0.862,0.921
			c0,0.526-0.336,0.921-0.877,0.921C37.127,73.066,36.776,72.672,36.776,72.146z"/>
	</g>
	<g>
		<path fill="#FFFFFF" d="M60.68,71.674c0-0.541,0.365-0.921,0.876-0.921c0.512,0,0.863,0.38,0.863,0.921
			c0,0.526-0.336,0.921-0.877,0.921C61.031,72.595,60.68,72.2,60.68,71.674z"/>
	</g>
	<g>
		<path fill="#ED9D37" d="M71.635,75.355c1.038-1.447,1.841-3.348,1.841-5.978c0-2.616-0.789-4.486-1.841-5.934h0.994
			c0.936,1.199,1.915,3.069,1.915,5.949c0,2.864-0.979,4.72-1.915,5.963H71.635z"/>
	</g>
	<g>
		<path fill="#ED9D37" d="M69.176,43.479c-1.117,1.557-1.982,3.603-1.982,6.434c0,2.816,0.85,4.83,1.982,6.388h-1.07
			c-1.007-1.291-2.061-3.304-2.061-6.403c0-3.084,1.054-5.082,2.061-6.419H69.176z"/>
	</g>
	<g>
		<path fill="#ED9D37" d="M52.69,7.272c-1.117,1.557-1.982,3.602-1.982,6.434c0,2.816,0.85,4.83,1.982,6.387h-1.069
			c-1.007-1.29-2.061-3.304-2.061-6.403c0-3.083,1.054-5.082,2.061-6.418H52.69z"/>
	</g>
	<g>
		<path fill="#ED9D37" d="M44.457,33.707c2.386-3.388,1.687-5.224-0.573-6.814c-0.839-0.591-1.7-0.967-2.348-1.155l0.907-2.087
			c0.8,0.218,2.056,0.833,2.982,1.485c3.358,2.365,4.913,5.571,1.678,10.166l-8.151,11.576l-2.519-1.774L44.457,33.707z"/>
	</g>
	<g>
		<path fill="#ED9D37" d="M28.587,52.875c-1.117,1.557-1.982,3.603-1.982,6.435c0,2.816,0.85,4.83,1.982,6.387h-1.07
			c-1.007-1.291-2.061-3.304-2.061-6.403c0-3.083,1.054-5.082,2.061-6.419H28.587z"/>
	</g>
	<g>
		<path fill="#FFFFFF" d="M45.227,89.574c-0.121-0.661-0.218-1.448-0.239-2.313c-0.037-1.564,0.316-2.689,1.021-3.444
			c0.704-0.769,1.716-1.231,3.146-1.265c1.442-0.034,2.633,0.363,3.465,1.133c0.845,0.77,1.322,2.062,1.361,3.702
			c0.019,0.776-0.005,1.428-0.058,1.981L45.227,89.574z M53.017,88.299c0.046-0.277,0.05-0.678,0.04-1.103
			c-0.055-2.33-1.449-3.563-3.836-3.506c-2.085,0.038-3.383,1.196-3.329,3.5c0.014,0.564,0.076,0.988,0.148,1.275L53.017,88.299z"/>
	</g>
	<g>
		<path fill="#ED9D37" d="M56.962,36.61c-0.336,0.176-1.082,0.41-2.032,0.41c-2.134,0-3.521-1.447-3.521-3.61
			c0-2.177,1.49-3.756,3.799-3.756c0.761,0,1.433,0.19,1.784,0.365l-0.292,0.994c-0.307-0.176-0.79-0.336-1.491-0.336
			c-1.622,0-2.499,1.198-2.499,2.674c0,1.637,1.053,2.645,2.456,2.645c0.73,0,1.213-0.19,1.579-0.35L56.962,36.61z"/>
	</g>
	<g>
		<path fill="#ED9D37" d="M27.56,82.244l1.211-1.495l12.062,9.771l-1.211,1.495L27.56,82.244z"/>
	</g>
	<g>
		<path fill="#ED9D37" d="M53.577,92.728l-0.537-1.848l14.906-4.33l0.537,1.848L53.577,92.728z"/>
	</g>
</g>
</svg>
