<?xml version="1.0" encoding="utf-8"?>
<!-- Generator: Adobe Illustrator 16.0.0, SVG Export Plug-In . SVG Version: 6.00 Build 0)  -->
<!DOCTYPE svg PUBLIC "-//W3C//DTD SVG 1.1//EN" "http://www.w3.org/Graphics/SVG/1.1/DTD/svg11.dtd">
<svg version="1.1" id="Layer_1" xmlns="http://www.w3.org/2000/svg" xmlns:xlink="http://www.w3.org/1999/xlink" x="0px" y="0px"
	 width="100px" height="100px" viewBox="0 0 100 100" enable-background="new 0 0 100 100" xml:space="preserve">
<g>
	<g>
		<path fill="#EA9C37" d="M77.407,24.829c-5.304,1.633-10.734,4.973-15.591,11.606c-4.776,6.521-6.195,12.687-6.277,18.256
			l-2.528-1.852c-0.081-4.731,0.862-11.245,6.094-18.391c5.322-7.192,11.211-10.083,15.774-11.471L77.407,24.829z"/>
	</g>
	<g>
		<path fill="#FFFFFF" d="M83.539,68.233c-2.784-3.171-6.794-5.897-12.908-7.201c-6.013-1.282-10.732-0.345-14.622,1.333
			l0.497-2.331c3.258-1.531,8.071-2.906,14.658-1.501c6.646,1.452,10.488,4.636,12.872,7.37L83.539,68.233z"/>
	</g>
	<g>
		<path fill="#FFFFFF" d="M48.986,62.063c-4.206,0.354-8.782,1.956-13.465,6.095c-4.606,4.072-6.66,8.424-7.624,12.549l-1.579-1.786
			c0.708-3.529,2.464-8.217,7.509-12.677c5.121-4.481,9.965-5.675,13.58-5.966L48.986,62.063z"/>
	</g>
	<g>
		<path fill="#FFFFFF" d="M48.985,59.489c-0.78-2.509-2.368-5.075-5.514-7.365c-3.094-2.252-6.015-2.917-8.651-2.947l0.873-1.2
			c2.24-0.044,5.325,0.393,8.714,2.861c3.412,2.51,4.79,5.294,5.452,7.453L48.985,59.489z"/>
	</g>
	<g>
		<path fill="#FFFFFF" d="M68.868,45.597c-2.509,0.779-5.074,2.369-7.365,5.515c-2.252,3.094-2.916,6.015-2.947,8.651l-1.199-0.873
			c-0.045-2.24,0.392-5.325,2.86-8.715c2.51-3.411,5.294-4.788,7.452-5.451L68.868,45.597z"/>
	</g>
	<g>
		<path fill="#EA9C37" d="M84.621,40.678c0.276-2.188-0.044-5.046-1.561-8.364c-1.493-3.263-3.455-5.347-5.281-6.597l1.965-0.899
			c1.653,0.97,3.894,2.927,5.53,6.504c1.626,3.605,1.651,6.553,1.312,8.457L84.621,40.678z"/>
	</g>
	<g>
		<path fill="#EA9C37" d="M88.99,61.189c0.651-2.108,0.832-4.978-0.088-8.508c-0.905-3.472-2.476-5.864-4.058-7.412l2.091-0.544
			c1.461,1.242,3.328,3.558,4.32,7.364c0.976,3.832,0.491,6.74-0.174,8.556L88.99,61.189z"/>
	</g>
	<g>
		<path fill="#EA9C37" d="M11.789,64.565c1.029,1.951,2.931,4.107,6.079,5.954c3.094,1.815,5.896,2.396,8.11,2.372l-1.094,1.863
			c-1.911,0.156-4.869-0.161-8.261-2.152c-3.401-2.019-5.114-4.417-5.927-6.172L11.789,64.565z"/>
	</g>
	<g>
		<path fill="#EA9C37" d="M49.569,55.214c0.396-5.536-0.755-11.807-5.183-18.733c-4.354-6.812-9.589-10.364-14.751-12.454
			l2.641-1.688c4.44,1.634,10.173,4.87,14.943,12.332c4.779,7.563,5.347,14.099,4.991,18.854L49.569,55.214z"/>
	</g>
	<g>
		<path fill="#FFFFFF" d="M49.327,60.171c-0.104-0.721-0.152-1.658-0.136-2.645c0.027-1.641,0.339-2.701,0.982-3.524
			c0.682-0.887,1.755-1.433,3.282-1.408c1.654,0.028,2.785,0.65,3.477,1.495c0.741,0.923,1.078,2.313,1.049,4.006
			c-0.017,1.013-0.092,1.73-0.164,2.216L49.327,60.171z M56.413,58.326c0.041-0.166,0.045-0.435,0.049-0.679
			c0.042-1.77-0.914-2.939-2.977-2.974c-1.795-0.042-2.762,0.993-2.79,2.673c-0.007,0.437,0.027,0.719,0.062,0.887L56.413,58.326z"
			/>
	</g>
	<g>
		<path fill="#EA9C37" d="M22.13,36.485c-0.34-1.903-0.314-4.851,1.312-8.456c1.636-3.578,3.875-5.535,5.53-6.504l1.965,0.898
			c-1.826,1.25-3.788,3.334-5.28,6.597c-1.518,3.318-1.837,6.175-1.562,8.363L22.13,36.485z"/>
	</g>
	<g>
		<path fill="#EA9C37" d="M9.745,66.196c-1.409-3.438-2.561-8.418-0.839-15.172c1.739-6.676,5.208-10.452,8.106-12.732l2.361,0.615
			c-3.322,2.791-6.347,6.683-7.934,12.777c-1.614,6.197-0.958,11.121,0.668,15.127L9.745,66.196z"/>
	</g>
</g>
</svg>
