<?xml version="1.0" encoding="utf-8"?>
<!-- Generator: Adobe Illustrator 16.0.0, SVG Export Plug-In . SVG Version: 6.00 Build 0)  -->
<!DOCTYPE svg PUBLIC "-//W3C//DTD SVG 1.1//EN" "http://www.w3.org/Graphics/SVG/1.1/DTD/svg11.dtd">
<svg version="1.1" id="Layer_1" xmlns="http://www.w3.org/2000/svg" xmlns:xlink="http://www.w3.org/1999/xlink" x="0px" y="0px"
	 width="100px" height="100px" viewBox="0 0 100 100" enable-background="new 0 0 100 100" xml:space="preserve">
<g>
	<path fill="#FFFFFF" d="M45.453,43.458l-4.512,15.907c-0.699,2.597-1.41,4.901-2.268,7.097l0.146,0.108
		c1.889-1.438,3.926-2.768,6.195-4.209l13.788-9.088l4.516,3.319L37.668,71.943l-4.123-3.031l7.295-28.846L45.453,43.458z"/>
</g>
<g>
	<path fill="#EA9C37" d="M57.584,51.609l4.513-15.907c0.698-2.597,1.409-4.901,2.269-7.097l-0.147-0.108
		c-1.89,1.438-3.926,2.769-6.195,4.21l-13.788,9.088l-4.516-3.32L65.37,23.124l4.122,3.031l-7.294,28.846L57.584,51.609z"/>
</g>
<g>
	<g>
		<path fill="#FFFFFF" d="M11.896,54.277C7.768,27.234,27.186,12.279,45.06,9.551C66.721,6.245,84.881,19.616,88.137,40.95
			c3.669,24.038-12.283,41.386-32.581,44.483C32.229,88.994,15.037,74.86,11.896,54.277z M80.783,42.534
			C77.711,22.402,61.275,13.226,45.522,15.63c-16.057,2.45-29.438,16.331-26.274,37.063c2.087,13.672,14.033,29.99,35.391,26.73
			C75.238,76.28,83.352,59.361,80.783,42.534z"/>
	</g>
</g>
</svg>
