<?xml version="1.0" encoding="utf-8"?>
<!-- Generator: Adobe Illustrator 16.0.0, SVG Export Plug-In . SVG Version: 6.00 Build 0)  -->
<!DOCTYPE svg PUBLIC "-//W3C//DTD SVG 1.1//EN" "http://www.w3.org/Graphics/SVG/1.1/DTD/svg11.dtd">
<svg version="1.1" id="Layer_1" xmlns="http://www.w3.org/2000/svg" xmlns:xlink="http://www.w3.org/1999/xlink" x="0px" y="0px"
	 width="100px" height="100px" viewBox="0 0 100 100" enable-background="new 0 0 100 100" xml:space="preserve">
<g>
	<g>
		<path fill="#EA9C37" d="M49.66,40.443c0.254,1.685,0.446,3.686,0.447,5.878c0,3.971-0.919,6.798-2.666,8.672
			c-1.747,1.906-4.224,3.02-7.687,3.021c-3.494,0.002-6.354-1.078-8.324-3.079c-2.001-2-3.083-5.305-3.084-9.466
			c-0.001-1.969,0.094-3.621,0.252-5.019L49.66,40.443z M30.728,43.214c-0.127,0.698-0.159,1.715-0.158,2.795
			c0.002,5.908,3.306,9.116,9.088,9.114c5.051,0.03,8.258-2.83,8.257-8.675c0-1.429-0.128-2.509-0.287-3.24L30.728,43.214z"/>
	</g>
	<g>
		<path fill="#EA9C37" d="M75.612,40.61c0.254,1.685,0.445,3.686,0.446,5.877c0.001,3.971-0.919,6.799-2.666,8.674
			c-1.747,1.906-4.224,3.019-7.687,3.02c-3.495,0.002-6.354-1.078-8.324-3.078c-2.002-2.001-3.083-5.305-3.084-9.466
			c-0.001-1.97,0.095-3.621,0.253-5.02L75.612,40.61z M56.679,43.38c-0.126,0.699-0.158,1.716-0.157,2.796
			c0.001,5.909,3.306,9.116,9.088,9.114c5.05,0.03,8.258-2.829,8.256-8.675c0-1.429-0.128-2.509-0.287-3.24L56.679,43.38z"/>
	</g>
	<g>
		<path fill="#EA9C37" d="M56.069,43.827l0,2.065l-7.848,0.003l0-2.065L56.069,43.827z"/>
	</g>
	<g>
		<path fill="#FFFFFF" d="M53.318,63.899c0.069,2.865,1.653,3.23,3.066,3.196c1.13-0.027,2.256-0.215,3.383-0.404
			c1.126-0.188,2.212-0.377,3.342-0.403c3.714-0.089,5.346,2.295,5.429,5.726l0.02,0.848l-2.22,0.053l-0.018-0.727
			c-0.057-2.381-1.368-3.157-3.548-3.104c-0.929,0.022-1.894,0.167-2.858,0.352c-1.005,0.186-1.972,0.33-3.062,0.356
			c-2.582,0.103-3.901-0.996-4.429-2.801l-0.081,0.001c-0.4,1.828-1.746,2.991-4.33,3.013c-1.09,0.027-2.102-0.071-3.075-0.209
			c-1.013-0.137-1.944-0.235-2.913-0.213c-2.26,0.055-3.489,1.014-3.435,3.274l0.018,0.727l-2.221,0.053l-0.02-0.847
			c-0.081-3.351,1.313-5.888,5.389-5.987c1.089-0.025,2.224,0.108,3.317,0.244s2.188,0.271,3.277,0.244
			c1.251-0.03,2.978-0.476,2.908-3.341L53.318,63.899z"/>
	</g>
	<g>
		<path fill="#FFFFFF" d="M55.884,10.234c-7.035,1.202-14.515,4.563-21.808,12.216c-7.172,7.527-10.004,15.155-11.031,22.244
			l-2.917-2.779c0.681-6.048,2.962-14.201,10.82-22.446c7.98-8.289,15.971-11.002,22.019-12.016L55.884,10.234z"/>
	</g>
	<g>
		<path fill="#FFFFFF" d="M69.499,75.816c0.482,0.957,0.884,2.835,0.94,5.179c0.211,8.767-6.925,13.12-16.66,13.354
			c-12.945,0.312-18.165-6.753-18.325-13.429c-0.057-2.345,0.363-3.987,0.806-4.66l5.633,0.985
			c-0.338,0.773-0.623,1.646-0.587,3.126c0.091,3.771,3.435,7.106,11.946,6.902c8.207-0.198,11.342-3.385,11.244-7.462
			c-0.027-1.121-0.313-2.389-0.587-3.198L69.499,75.816z"/>
	</g>
	<g>
		<path fill="#FFFFFF" d="M81.624,46.167c1.287-4.011,1.566-8.842-0.453-14.745c-1.985-5.805-5.207-9.365-8.638-11.834l2.25-0.77
			c2.98,2.003,6.625,5.419,8.8,11.779c2.165,6.436,1.408,11.357,0.29,14.799L81.624,46.167z"/>
	</g>
</g>
</svg>
