<?xml version="1.0" encoding="utf-8"?>
<!-- Generator: Adobe Illustrator 16.0.0, SVG Export Plug-In . SVG Version: 6.00 Build 0)  -->
<!DOCTYPE svg PUBLIC "-//W3C//DTD SVG 1.1//EN" "http://www.w3.org/Graphics/SVG/1.1/DTD/svg11.dtd">
<svg version="1.1" id="Layer_1" xmlns="http://www.w3.org/2000/svg" xmlns:xlink="http://www.w3.org/1999/xlink" x="0px" y="0px"
	 width="100px" height="100px" viewBox="0 0 100 100" enable-background="new 0 0 100 100" xml:space="preserve">
<g>
	<g>
		<path fill="#ED9D37" d="M39.334,66.746c0,5.31-3.246,8.529-8.018,8.529c-4.844,0-7.679-3.627-7.679-8.24
			c0-4.853,3.125-8.481,7.945-8.481C36.597,58.553,39.334,62.277,39.334,66.746z M27.537,66.961c0,3.172,1.502,5.405,3.973,5.405
			c2.495,0,3.924-2.354,3.924-5.501c0-2.908-1.405-5.406-3.949-5.406C28.991,61.459,27.537,63.814,27.537,66.961z"/>
	</g>
	<g>
		<path fill="#ED9D37" d="M76.515,66.746c0,5.31-3.247,8.529-8.019,8.529c-4.844,0-7.678-3.627-7.678-8.24
			c0-4.853,3.125-8.481,7.945-8.481C73.777,58.553,76.515,62.277,76.515,66.746z M64.718,66.961c0,3.172,1.502,5.405,3.973,5.405
			c2.495,0,3.924-2.354,3.924-5.501c0-2.908-1.405-5.406-3.948-5.406C66.171,61.459,64.718,63.814,64.718,66.961z"/>
	</g>
	<g>
		<path fill="#ED9D37" d="M57.093,88.434c0,4.531-2.771,7.279-6.843,7.279c-4.135,0-6.553-3.097-6.553-7.034
			c0-4.141,2.667-7.237,6.78-7.237C54.757,81.442,57.093,84.619,57.093,88.434z M47.025,88.618c0,2.707,1.281,4.613,3.391,4.613
			c2.129,0,3.349-2.009,3.349-4.695c0-2.481-1.199-4.613-3.37-4.613C48.266,83.922,47.025,85.932,47.025,88.618z"/>
	</g>
	<g>
		<path fill="#FFFFFF" d="M60.459,80.468c-2.314-1.313-5.688-2.374-10.071-2.258c-4.383,0.115-7.647,1.326-9.914,2.784l-0.069-2.646
			c1.872-1.374,5.076-2.982,9.905-3.109c4.829-0.103,8.112,1.311,10.079,2.583L60.459,80.468z"/>
	</g>
	<g>
		<path fill="#FFFFFF" d="M56.532,76.033c2.314,1.313,5.688,2.373,10.071,2.258c4.384-0.115,7.648-1.325,9.914-2.784l0.069,2.647
			c-1.872,1.374-5.076,2.982-9.904,3.109c-4.83,0.102-8.113-1.311-10.08-2.583L56.532,76.033z"/>
	</g>
	<g>
		<path fill="#FFFFFF" d="M25.206,76.48c2.314,1.313,5.688,2.374,10.071,2.258c4.383-0.116,7.647-1.326,9.914-2.784l0.069,2.646
			c-1.872,1.373-5.076,2.981-9.905,3.109c-4.83,0.102-8.113-1.311-10.08-2.583L25.206,76.48z"/>
	</g>
	<g>
		<path fill="#FFFFFF" d="M73.355,51.174c-0.673-0.519-1.556-0.949-2.796-1.294c-2.448-0.682-4.316,0.16-6.243,4.008l-7.297,14.729
			l-2.86-0.797l7.451-15.018c2.539-5.114,5.414-6.634,9.756-5.424c1.414,0.394,2.775,1.104,3.285,1.542L73.355,51.174z"/>
	</g>
	<g>
		<path fill="#FFFFFF" d="M28.316,49.076c0.51-0.437,1.872-1.148,3.285-1.542c4.343-1.209,7.218,0.311,9.756,5.424l7.451,15.018
			l-2.86,0.797l-7.297-14.729c-1.926-3.847-3.795-4.689-6.242-4.008c-1.241,0.345-2.124,0.775-2.796,1.294L28.316,49.076z"/>
	</g>
	<g>
		<path fill="#FFFFFF" d="M56.916,67.692c0.138,0.3,0.321,1.062,0.321,1.917c0,2.862-1.97,4.732-5.633,4.732
			c-3.458,0-5.861-2.054-5.861-5.171c0-0.716,0.16-1.362,0.297-1.662l2.358,0.393c-0.091,0.253-0.206,0.624-0.206,1.131
			c0,1.455,1.374,2.309,3.32,2.309c2.038,0,3.275-0.854,3.275-2.262c0-0.438-0.069-0.808-0.229-1.131L56.916,67.692z"/>
	</g>
	<g>
		<path fill="#FFFFFF" d="M41.828,30.682L36.65,15.58c-0.761-2.014-1.421-4.127-1.979-6.142h-0.152
			c-0.508,1.964-1.269,4.078-2.03,6.142l-5.177,15.103h-2.437l8.832-24.164h2.03l8.527,24.164H41.828z"/>
	</g>
	<g>
		<path fill="#FFFFFF" d="M74.417,30.682L69.24,15.58c-0.761-2.014-1.421-4.127-1.979-6.142h-0.152
			c-0.508,1.964-1.269,4.078-2.03,6.142l-5.178,15.103h-2.436l8.832-24.164h2.03l8.527,24.164H74.417z"/>
	</g>
</g>
</svg>
