<?xml version="1.0" encoding="utf-8"?>
<!-- Generator: Adobe Illustrator 16.0.0, SVG Export Plug-In . SVG Version: 6.00 Build 0)  -->
<!DOCTYPE svg PUBLIC "-//W3C//DTD SVG 1.1//EN" "http://www.w3.org/Graphics/SVG/1.1/DTD/svg11.dtd">
<svg version="1.1" id="Layer_1" xmlns="http://www.w3.org/2000/svg" xmlns:xlink="http://www.w3.org/1999/xlink" x="0px" y="0px"
	 width="100px" height="100px" viewBox="0 0 100 100" enable-background="new 0 0 100 100" xml:space="preserve">
<g>
	<path fill="#FFFFFF" d="M91.08,54.878c0,3.024-1.205,4.693-3.322,4.693c-1.865,0-3.131-1.628-3.16-4.57
		c0-2.983,1.383-4.625,3.322-4.625C89.934,50.376,91.08,52.045,91.08,54.878z M85.893,55.015c0,2.313,0.764,3.626,1.939,3.626
		c1.322,0,1.955-1.437,1.955-3.708c0-2.189-0.604-3.626-1.939-3.626C86.715,51.307,85.893,52.593,85.893,55.015z"/>
</g>
<g>
	<path fill="#FFFFFF" d="M69.15,53.107c0,3.426-2.373,4.92-4.615,4.92c-2.506,0-4.439-1.838-4.439-4.767
		c0-3.102,2.027-4.92,4.594-4.92C67.352,48.34,69.15,50.273,69.15,53.107z M61.799,53.202c0,2.029,1.168,3.561,2.814,3.561
		c1.607,0,2.813-1.512,2.813-3.599c0-1.57-0.783-3.561-2.773-3.561C62.66,49.603,61.799,51.441,61.799,53.202z"/>
</g>
<g>
	<path fill="#FFFFFF" d="M60.891,52.326c0-1.084,0.732-1.847,1.76-1.847c1.025,0,1.729,0.762,1.729,1.847
		c0,1.055-0.674,1.846-1.76,1.846C61.596,54.172,60.891,53.381,60.891,52.326z"/>
</g>
<g>
	<path fill="#FFFFFF" d="M85.594,55.162c0-1.084,0.732-1.846,1.758-1.846s1.729,0.762,1.729,1.846c0,1.055-0.674,1.847-1.758,1.847
		C86.297,57.009,85.594,56.217,85.594,55.162z"/>
</g>
<g>
	<path fill="#FFFFFF" d="M76.959,71.179c0.33,0.205,0.811,0.362,1.453,0.362c0.631,0,1.107-0.162,1.441-0.362v0.38
		c-0.275,0.193-0.754,0.409-1.445,0.409c-0.695-0.003-1.17-0.215-1.449-0.409V71.179z"/>
</g>
<g>
	<path fill="#EA9C37" d="M74.436,44.247c1.355,0.315,2.957,0.275,4.848-0.551c1.859-0.813,2.945-1.972,3.666-3.17l0.316,0.721
		c-0.58,1.038-1.607,2.332-3.645,3.223c-2.063,0.889-3.705,0.773-4.871,0.499L74.436,44.247z"/>
</g>
<g>
	<path fill="#EA9C37" d="M82.473,33.562c-0.975-1.564-2.51-3.024-5.051-4.021c-2.5-0.979-4.602-0.911-6.395-0.464l0.379-0.969
		c1.512-0.428,3.684-0.679,6.424,0.395c2.76,1.098,4.189,2.744,5.021,4.091L82.473,33.562z"/>
</g>
<g>
	<path fill="#EA9C37" d="M65.48,30.565c-1.219-1.383-2.971-2.57-5.643-3.134c-2.627-0.554-4.689-0.141-6.386,0.595l0.215-1.019
		c1.421-0.671,3.522-1.276,6.401-0.669c2.904,0.629,4.584,2.017,5.627,3.208L65.48,30.565z"/>
</g>
<g>
	<path fill="#EA9C37" d="M93.873,48.288c0.48-1.78,0.5-3.898-0.508-6.436c-0.988-2.496-2.473-3.984-4.023-4.992l0.967-0.384
		c1.346,0.814,3.012,2.23,4.096,4.965c1.08,2.768,0.854,4.936,0.438,6.463L93.873,48.288z"/>
</g>
<g>
	<path fill="#EA9C37" d="M88.127,50.204c1.137-0.656,2.215-1.713,2.986-3.5c0.76-1.757,0.762-3.254,0.488-4.544l0.68,0.294
		c0.27,1.087,0.395,2.64-0.438,4.565c-0.85,1.94-2.057,2.918-3.037,3.478L88.127,50.204z"/>
</g>
<g>
	<path fill="#EA9C37" d="M83.877,48.274c1.139-0.656,2.217-1.713,2.988-3.5c0.758-1.757,0.762-3.255,0.486-4.544l0.682,0.294
		c0.268,1.088,0.395,2.641-0.438,4.565c-0.85,1.939-2.057,2.917-3.037,3.478L83.877,48.274z"/>
</g>
<g>
	<path fill="#EA9C37" d="M52.472,34.331c-2.681-0.349-6.159-0.347-10.872,0.439c-4.634,0.772-7.87,1.911-10.348,3.098l-0.122-0.731
		c2.05-1.028,5.262-2.305,10.339-3.151c5.131-0.844,8.582-0.69,10.88-0.386L52.472,34.331z"/>
</g>
<g>
	<path fill="#EA9C37" d="M19.434,33.366c1.079,0.917,2.763,1.884,5.181,2.622c2.377,0.725,4.304,0.85,5.721,0.705l-0.305,0.999
		c-1.195,0.191-3.165,0.208-5.772-0.587c-2.618-0.81-4.231-1.91-5.13-2.74L19.434,33.366z"/>
</g>
<g>
	<path fill="#EA9C37" d="M34.296,73.307c2.28,1.036,5.676,2.131,10.325,2.974c4.571,0.827,8.111,0.977,10.635,0.822l-0.203,1.122
		c-2.104,0.209-5.673,0.218-10.686-0.69c-5.036-0.922-8.352-2.168-10.274-3.105L34.296,73.307z"/>
</g>
<g>
	<path fill="#EA9C37" d="M45.464,36.557c0.806,0.914,1.965,1.698,3.73,2.071c1.736,0.367,3.098,0.094,4.219-0.393l-0.143,0.673
		c-0.938,0.444-2.327,0.844-4.229,0.442c-1.92-0.415-3.031-1.332-3.72-2.12L45.464,36.557z"/>
</g>
<g>
	<path fill="#FFFFFF" d="M80.504,73.569c1.355-0.22,3.006-0.914,4.721-2.404c1.686-1.466,2.586-3.004,3.01-4.315l0.883,1.015
		c-0.289,1.159-1.063,2.841-2.912,4.448c-1.865,1.606-3.621,2.14-4.818,2.272L80.504,73.569z"/>
</g>
<g>
	<path fill="#FFFFFF" d="M51.91,63.698c0.387,1.318,1.28,2.869,2.971,4.386c1.664,1.491,3.303,2.193,4.656,2.452l-0.898,1.002
		c-1.186-0.143-2.951-0.703-4.774-2.337c-1.825-1.653-2.572-3.329-2.853-4.5L51.91,63.698z"/>
</g>
<g>
	<path fill="#EA9C37" d="M7.132,50.449c-0.659,1.205-1.124,2.934-1,5.202c0.122,2.23,0.784,3.885,1.558,5.025l-1.343,0.073
		c-0.738-0.938-1.59-2.583-1.724-5.028c-0.121-2.459,0.536-4.173,1.166-5.199L7.132,50.449z"/>
</g>
<g>
	<path fill="#EA9C37" d="M7.366,48.667c1.185-0.695,2.472-1.938,3.533-3.948c1.042-1.976,1.326-3.735,1.248-5.111l1.19,0.628
		c0.149,1.184,0.036,3.033-1.107,5.199c-1.161,2.172-2.605,3.304-3.673,3.86L7.366,48.667z"/>
</g>
<g>
	<path fill="#EA9C37" d="M9.675,60.817c0.877,1.279,2.219,2.451,4.393,3.195c2.138,0.732,3.9,0.599,5.393,0.158l-0.284,0.828
		c-1.255,0.415-3.072,0.705-5.413-0.098c-2.362-0.822-3.623-2.153-4.372-3.255L9.675,60.817z"/>
</g>
<g>
	<path fill="#EA9C37" d="M28.964,73.167c-1.076-1.117-2.593-2.051-4.859-2.428c-2.229-0.37-3.946,0.053-5.346,0.734l0.143-0.864
		c1.171-0.617,2.915-1.202,5.356-0.796c2.464,0.422,3.928,1.526,4.849,2.49L28.964,73.167z"/>
</g>
<g>
	<path fill="#EA9C37" d="M23.287,58.736c1.935-0.443,4.473-1.498,7.445-3.523c2.922-1.992,4.808-3.969,5.95-5.608l0.758,1.112
		c-0.892,1.438-2.671,3.572-5.875,5.756c-3.228,2.185-5.84,3.06-7.521,3.376L23.287,58.736z"/>
</g>
<g>
	<path fill="#EA9C37" d="M25.124,63.079c1.737,0.961,4.331,1.871,7.896,2.347c3.504,0.467,6.229,0.255,8.175-0.203l-0.178,1.334
		c-1.624,0.474-4.373,0.875-8.217,0.362c-3.86-0.528-6.391-1.621-7.853-2.507L25.124,63.079z"/>
</g>
<g>
	<path fill="#EA9C37" d="M21.554,59.747c0.098,0.418,0.329,0.967,0.771,1.608c0.435,0.63,0.865,1.036,1.221,1.281l-0.24,0.166
		c-0.313-0.191-0.776-0.574-1.253-1.266c-0.477-0.695-0.668-1.26-0.739-1.624L21.554,59.747z"/>
</g>
<g>
	<path fill="#EA9C37" d="M9.282,68.412c0.297,0.714,0.891,1.527,1.929,2.272c1.021,0.732,1.979,1.025,2.751,1.087l-0.441,0.615
		c-0.671-0.007-1.692-0.213-2.812-1.017c-1.121-0.813-1.641-1.705-1.869-2.343L9.282,68.412z"/>
</g>
<g>
	<path fill="#EA9C37" d="M16.548,35.927c-0.832,0.264-1.68,0.797-2.433,1.847c-0.741,1.033-0.955,2.004-0.959,2.879l-0.401-0.287
		c-0.019-0.744,0.119-1.769,0.931-2.9c0.826-1.138,1.747-1.601,2.462-1.826L16.548,35.927z"/>
</g>
<g>
	<path fill="#EA9C37" d="M42.703,44.25c0.831,0.891,2.01,1.644,3.785,1.968c1.745,0.319,3.1,0.009,4.207-0.509l-0.124,0.677
		c-0.926,0.47-2.304,0.907-4.216,0.558c-1.929-0.362-3.065-1.249-3.776-2.017L42.703,44.25z"/>
</g>
<g>
	<path fill="#FFFFFF" d="M53.457,48.229c-0.843,0.879-1.527,2.1-1.75,3.891c-0.219,1.761,0.168,3.095,0.746,4.171l-0.682-0.085
		c-0.521-0.898-1.037-2.249-0.796-4.177c0.251-1.948,1.074-3.132,1.8-3.885L53.457,48.229z"/>
</g>
<g>
	<path fill="#EA9C37" d="M62.408,44.142c-0.83,0.312-1.662,0.897-2.371,2.001c-0.699,1.085-0.865,2.082-0.822,2.97l-0.422-0.271
		c-0.059-0.753,0.027-1.801,0.793-2.99c0.777-1.198,1.688-1.716,2.402-1.981L62.408,44.142z"/>
</g>
<g>
	<path fill="#FFFFFF" d="M81.215,56.679c-0.318-0.111-0.691-0.208-1.018-0.258l-0.037-0.556c0.365,0.118,0.744,0.279,1.023,0.452
		L81.215,56.679z"/>
</g>
</svg>
