<?xml version="1.0" encoding="utf-8"?>
<!-- Generator: Adobe Illustrator 16.0.0, SVG Export Plug-In . SVG Version: 6.00 Build 0)  -->
<!DOCTYPE svg PUBLIC "-//W3C//DTD SVG 1.1//EN" "http://www.w3.org/Graphics/SVG/1.1/DTD/svg11.dtd">
<svg version="1.1" id="Layer_1" xmlns="http://www.w3.org/2000/svg" xmlns:xlink="http://www.w3.org/1999/xlink" x="0px" y="0px"
	 width="100px" height="100px" viewBox="0 0 100 100" enable-background="new 0 0 100 100" xml:space="preserve">
<g>
	<path fill="#FFFFFF" d="M19.098,79.652c1.085-1.877,0.707-2.832-0.267-3.516c-0.936-0.656-2.294-0.96-4.505-1.456
		c-2.678-0.661-4.502-1.21-6.373-2.523c-2.962-2.079-4.54-5.053-1.577-8.778l3.703,2.598c-1.028,1.714-0.884,2.668,0.052,3.324
		s2.274,0.987,4.447,1.537c2.833,0.688,4.463,1.183,6.373,2.523c3.157,2.215,4.445,5.27,1.85,8.888L19.098,79.652z"/>
</g>
<g>
	<g>
		<path fill="#EA9C37" d="M50.699,49.878c3.55,4.42,8.77,8.315,16.897,10.424c7.993,2.074,14.382,1.096,19.7-0.927l-0.804,3.099
			c-4.462,1.862-11.002,3.424-19.759,1.151c-8.834-2.341-13.802-6.841-16.839-10.649L50.699,49.878z"/>
	</g>
	<g>
		<path fill="#FFFFFF" d="M83.965,27.516c-13.68-2.532-28.332-1.551-45.266,7.596C22.042,44.11,13.709,55.903,8.085,68.504
			l-2.25-4.164c4.459-10.776,12.478-23.595,30.707-33.442c18.322-9.897,33.531-9.625,45.174-7.547L83.965,27.516z"/>
	</g>
	<g>
		<path fill="#EA9C37" d="M89.794,39.784c-12.825-3.345-26.814-3.418-43.533,4.112C29.816,51.303,21.09,61.937,14.88,73.524
			l-1.852-4.111c4.977-9.934,13.475-21.563,31.473-29.669c18.089-8.147,32.521-6.845,43.441-4.071L89.794,39.784z"/>
	</g>
	<g>
		<path fill="#FFFFFF" d="M86.842,49.174c1.142-2.945,1.684-7.025,0.722-12.16c-0.945-5.049-2.95-8.622-5.057-10.989l3.041-0.569
			c1.962,1.918,4.397,5.412,5.435,10.948c1.014,5.571,0.03,9.674-1.1,12.202L86.842,49.174z"/>
	</g>
	<g>
		<path fill="#FFFFFF" d="M88.424,50.558c-11.315-2.7-23.592-2.507-38.125,4.407c-14.294,6.801-21.758,16.292-26.993,26.575
			l-1.7-3.573c4.185-8.809,11.429-19.169,27.073-26.613c15.723-7.481,28.411-6.603,38.045-4.369L88.424,50.558z"/>
	</g>
	<g>
		<path fill="#EA9C37" d="M85.777,69.646c-0.396,0-0.696-0.149-0.978-0.397c-0.483-0.428-0.77-1.266-0.121-2.332l2.214,1.346
			c0.036-0.183,0.01-0.553-0.277-0.872c-0.326-0.361-0.757-0.396-0.915-0.356c0.153-0.039,1.109-0.383,4.915-3.39
			c1.314-1.038,1.965-2.235,1.99-3.66c0.066-3.819-4.412-8.468-6.144-9.937l1.681-1.985c0.293,0.247,7.162,6.127,7.063,11.962
			c-0.037,2.225-1.039,4.13-2.978,5.661C88.51,68.624,86.814,69.646,85.777,69.646z"/>
	</g>
</g>
</svg>
