<?xml version="1.0" encoding="utf-8"?>
<!-- Generator: Adobe Illustrator 16.0.0, SVG Export Plug-In . SVG Version: 6.00 Build 0)  -->
<!DOCTYPE svg PUBLIC "-//W3C//DTD SVG 1.1//EN" "http://www.w3.org/Graphics/SVG/1.1/DTD/svg11.dtd">
<svg version="1.1" id="Layer_1" xmlns="http://www.w3.org/2000/svg" xmlns:xlink="http://www.w3.org/1999/xlink" x="0px" y="0px"
	 width="100px" height="100px" viewBox="0 0 100 100" enable-background="new 0 0 100 100" xml:space="preserve">
<g>
	<path fill="#EA9C37" d="M93.292,63.778c-3.198,2.368-10.913,6.358-16.899,8.641l0.013-7.166c5.204-1.325,12.753-4.058,16.863-6.078
		L93.292,63.778z"/>
</g>
<g>
	<path fill="#EA9C37" d="M27.084,74.44c5.092-0.122,13.939-1.313,19.752-2.684l3.699,7.058c-7.074,0.83-16.733,0.865-21.104,0.176
		L27.084,74.44z"/>
</g>
<g>
	<path fill="#FFFFFF" d="M25.79,61.715c0-6.371,4.304-10.848,10.331-10.848c6.026,0,10.158,4.477,10.158,10.848
		c0,6.197-3.96,10.847-10.33,10.847C29.922,72.562,25.79,67.912,25.79,61.715z"/>
</g>
<g>
	<path fill="#FFFFFF" d="M68.547,51.357c0-5.758,3.89-9.803,9.336-9.803s9.18,4.045,9.18,9.803c0,5.601-3.579,9.802-9.336,9.802
		C72.282,61.159,68.547,56.958,68.547,51.357z"/>
</g>
<g>
	<path fill="#EA9C37" d="M51.347,72.287c1.109-2.975,2.47-8.367,3.024-12.047l4.939-0.504c-1.16,4.284-3.377,9.879-4.789,12.247
		L51.347,72.287z"/>
</g>
<g>
	<path fill="#EA9C37" d="M70.782,68.895c-1.627-1.745-4.363-5.997-5.923-9.317l4.953-0.174c0.902,2.903,2.768,7.094,4.152,9.363
		L70.782,68.895z"/>
</g>
<g>
	<path fill="#FFFFFF" d="M48.861,79.773c-0.875-2.041-1.735-4.394-2.381-7.021c-1.263-5.128-0.769-9.362,1.248-12.335
		c1.905-2.858,4.892-4.92,9.373-6.023c4.349-1.071,8.58-0.919,12.149,0.898c3.472,1.799,6.178,5.6,7.513,11.019
		c0.535,2.168,0.994,4.222,1.267,6.276L48.861,79.773z M75.833,71.052c-0.112-1.211-0.468-2.848-0.899-4.6
		c-2.218-9.005-8.632-12.157-17.198-10.048c-7.522,1.809-11.686,7.035-9.467,16.042c0.534,2.167,1.174,3.822,1.692,4.978
		L75.833,71.052z"/>
</g>
<g>
	<path fill="#EA9C37" d="M72.321,83.177l0.781,3.181l-12.09,2.971l-0.781-3.181L72.321,83.177z"/>
</g>
<g>
	<g>
		<path fill="#EA9C37" d="M33.401,39.71c-11.004,7.631-19.035,7.315-23.277,1.153c-3.295-4.787-1.687-12.485,9.268-20.29
			c11.193-7.761,19.404-6.172,22.96-1.005C46.104,25.02,44.027,32.342,33.401,39.71z M20.943,22.929
			c-8.548,5.927-11.768,12.501-8.701,16.957c3.524,5.119,10.932,3.414,19.291-2.382c8.029-5.567,12.338-11.776,8.749-16.99
			C37.378,16.295,30.011,16.642,20.943,22.929z"/>
	</g>
</g>
<g>
	<g>
		<path fill="#EA9C37" d="M68.612,34.201C56.787,31.448,52.154,26.1,53.779,19.867c1.263-4.842,7.462-8.179,19.375-5.559
			c12.028,2.799,15.903,8.99,14.541,14.215C86.257,34.036,80.03,36.859,68.612,34.201z M72.491,16.645
			c-9.186-2.137-15.594-0.477-16.77,4.03c-1.35,5.178,4.28,8.979,13.262,11.07c8.627,2.008,15.445,1.256,16.82-4.018
			C86.917,23.461,82.235,18.913,72.491,16.645z"/>
	</g>
</g>
</svg>
