<?xml version="1.0" encoding="utf-8"?>
<!-- Generator: Adobe Illustrator 16.0.0, SVG Export Plug-In . SVG Version: 6.00 Build 0)  -->
<!DOCTYPE svg PUBLIC "-//W3C//DTD SVG 1.1//EN" "http://www.w3.org/Graphics/SVG/1.1/DTD/svg11.dtd">
<svg version="1.1" id="Layer_1" xmlns="http://www.w3.org/2000/svg" xmlns:xlink="http://www.w3.org/1999/xlink" x="0px" y="0px"
	 width="100px" height="100px" viewBox="0 0 100 100" enable-background="new 0 0 100 100" xml:space="preserve">
<g>
	<path fill="#ED9D37" d="M49.275,51.277c0,5.022-3.938,7.198-7.257,7.198c-4.022,0-6.947-2.929-6.947-6.891
		c0-4.464,3.376-7.17,7.145-7.17C46.548,44.415,49.275,47.456,49.275,51.277z M36.449,51.501c0,3.738,2.729,5.858,5.653,5.858
		c2.982,0,5.795-2.148,5.795-5.998c0-2.539-1.716-5.831-5.682-5.831C38.391,45.53,36.449,48.376,36.449,51.501z"/>
</g>
<g>
	<path fill="#ED9D37" d="M66.594,51.277c0,5.022-3.938,7.198-7.256,7.198c-4.022,0-6.948-2.929-6.948-6.891
		c0-4.464,3.375-7.17,7.145-7.17C63.866,44.415,66.594,47.456,66.594,51.277z M53.769,51.501c0,3.738,2.728,5.858,5.653,5.858
		c2.981,0,5.794-2.148,5.794-5.998c0-2.539-1.716-5.831-5.682-5.831C55.709,45.53,53.769,48.376,53.769,51.501z"/>
</g>
<g>
	<path fill="#FFFFFF" d="M63.132,90.883c3.365-4.059,5.852-8.687,5.852-15.628c0-6.904-2.41-11.418-5.852-15.553h1.797
		c2.906,3.376,5.852,8.08,5.852,15.591c0,7.473-2.945,12.101-5.852,15.591H63.132z"/>
</g>
<g>
	<path fill="#FFFFFF" d="M36.156,90.883c-3.161-3.49-6.364-8.118-6.364-15.591c0-7.511,3.203-12.214,6.364-15.591h1.954
		c-3.742,4.135-6.363,8.649-6.363,15.553c0,6.942,2.703,11.57,6.363,15.629H36.156z"/>
</g>
<g>
	<path fill="#FFFFFF" d="M21.248,7.707c-2.142,6.706-2.541,13.53,1.083,21.982c3.526,8.224,8.832,12.331,15.021,15.572l-2.165,0.929
		c-5.244-2.565-11.2-6.664-15.04-15.618c-3.879-9.046-2.762-16.232-1.063-21.936L21.248,7.707z"/>
</g>
<g>
	<path fill="#FFFFFF" d="M84.466,8.636c1.698,5.704,2.816,12.89-1.063,21.936c-3.84,8.955-9.797,13.053-15.041,15.618l-2.165-0.929
		c6.188-3.242,11.495-7.349,15.021-15.572c3.623-8.452,3.224-15.276,1.082-21.982L84.466,8.636z"/>
</g>
<g>
	<path fill="#FFFFFF" d="M49.186,27.531h0.697v10.102h-0.697V27.531z"/>
</g>
<g>
	<path fill="#FFFFFF" d="M66.838,32.005l0.502,0.502l-7.268,7.267l-0.501-0.501L66.838,32.005z"/>
</g>
<g>
	<path fill="#FFFFFF" d="M58.103,28.495l0.657,0.232l-3.366,9.525l-0.657-0.232L58.103,28.495z"/>
</g>
<g>
	<path fill="#FFFFFF" d="M70.971,37.051l0.426,0.552l-7.997,6.171l-0.426-0.552L70.971,37.051z"/>
</g>
<g>
	<path fill="#FFFFFF" d="M78.213,53.76l-0.091,0.703L67.93,53.15l0.091-0.703L78.213,53.76z"/>
</g>
<g>
	<path fill="#FFFFFF" d="M75.655,44.7l0.218,0.662l-9.597,3.154l-0.218-0.662L75.655,44.7z"/>
</g>
<g>
	<path fill="#FFFFFF" d="M75.664,62.261l-0.406,0.567l-8.21-5.885l0.406-0.566L75.664,62.261z"/>
</g>
<g>
	<path fill="#FFFFFF" d="M61.743,74.002l-0.699,0.115l-1.673-10.14l0.7-0.115L61.743,74.002z"/>
</g>
<g>
	<path fill="#FFFFFF" d="M69.686,68.947l-0.571,0.399l-5.78-8.285l0.572-0.398L69.686,68.947z"/>
</g>
<g>
	<path fill="#FFFFFF" d="M55.108,75.571l-0.697,0.015l-0.224-10.099l0.697-0.016L55.108,75.571z"/>
</g>
<g>
	<path fill="#FFFFFF" d="M37.36,71.489l-0.512-0.49l7.104-7.426l0.513,0.49L37.36,71.489z"/>
</g>
<g>
	<path fill="#FFFFFF" d="M46.172,74.806l-0.662-0.218l3.154-9.596l0.662,0.218L46.172,74.806z"/>
</g>
<g>
	<path fill="#FFFFFF" d="M30.697,68.093l-0.396-0.573l8.3-5.756l0.397,0.573L30.697,68.093z"/>
</g>
<g>
	<path fill="#FFFFFF" d="M24.314,51.037l0.126-0.698l10.112,1.831l-0.126,0.698L24.314,51.037z"/>
</g>
<g>
	<path fill="#FFFFFF" d="M26.408,60.216l-0.184-0.672l9.744-2.662l0.184,0.672L26.408,60.216z"/>
</g>
<g>
	<path fill="#FFFFFF" d="M24.62,44.492l0.274-0.641l9.285,3.977l-0.274,0.641L24.62,44.492z"/>
</g>
<g>
	<path fill="#FFFFFF" d="M35.683,30.026l0.658-0.263l3.818,9.541l-0.658,0.263L35.683,30.026z"/>
</g>
<g>
	<path fill="#FFFFFF" d="M29.017,36.675l0.472-0.512l7.43,6.844l-0.472,0.512L29.017,36.675z"/>
</g>
<g>
	<path fill="#FFFFFF" d="M41.114,28.56l0.644-0.267l3.865,9.333l-0.645,0.267L41.114,28.56z"/>
</g>
<g>
	<path fill="#FFFFFF" d="M43.857,51.304c0-0.567,0.382-0.987,0.911-0.987s0.889,0.42,0.889,0.987c0,0.504-0.359,0.966-0.91,0.966
		C44.218,52.271,43.836,51.808,43.857,51.304z"/>
</g>
<g>
	<path fill="#FFFFFF" d="M55.644,51.955c0-0.567,0.381-0.987,0.91-0.987s0.89,0.42,0.89,0.987c0,0.504-0.36,0.966-0.911,0.966
		C56.003,52.92,55.622,52.458,55.644,51.955z"/>
</g>
</svg>
