<?xml version="1.0" encoding="utf-8"?>
<!-- Generator: Adobe Illustrator 16.0.0, SVG Export Plug-In . SVG Version: 6.00 Build 0)  -->
<!DOCTYPE svg PUBLIC "-//W3C//DTD SVG 1.1//EN" "http://www.w3.org/Graphics/SVG/1.1/DTD/svg11.dtd">
<svg version="1.1" id="Layer_1" xmlns="http://www.w3.org/2000/svg" xmlns:xlink="http://www.w3.org/1999/xlink" x="0px" y="0px"
	 width="100px" height="100px" viewBox="0 0 100 100" enable-background="new 0 0 100 100" xml:space="preserve">
<g>
	<g>
		<path fill="#FFFFFF" d="M45.328,65.387c0,4.707-3.261,6.759-6.337,6.759c-3.445,0-6.101-2.524-6.101-6.549
			c0-4.261,2.787-6.758,6.311-6.758C42.855,58.839,45.328,61.495,45.328,65.387z M35.229,65.519c0,2.786,1.604,4.891,3.866,4.891
			c2.209,0,3.866-2.078,3.866-4.943c0-2.157-1.078-4.892-3.813-4.892C36.413,60.574,35.229,63.098,35.229,65.519z"/>
	</g>
	<g>
		<path fill="#FFFFFF" d="M35.387,65.171c0-1.677,1.133-2.855,2.72-2.855c1.586,0,2.675,1.179,2.675,2.855
			c0,1.633-1.043,2.856-2.72,2.856C36.475,68.027,35.387,66.804,35.387,65.171z"/>
	</g>
	<g>
		<path fill="#EA9C37" d="M58.344,79.867l-0.385,2.521l-20.331-3.105l0.385-2.521L58.344,79.867z"/>
	</g>
	<g>
		<path fill="#EA9C37" d="M57.668,87.315l-0.546,2.036l-25.936-6.955l0.546-2.036L57.668,87.315z"/>
	</g>
	<g>
		<path fill="#EA9C37" d="M51.208,93.128l-0.846,1.867L35.29,88.176l0.846-1.868L51.208,93.128z"/>
	</g>
	<g>
		<path fill="#FFFFFF" d="M89.936,5.076L90.94,38.62l-4.27-1.254l-0.342-16.478c-0.103-4.521-0.144-8.578,0.091-12.405l-0.091-0.026
			c-1.903,3.289-4.309,6.776-6.845,10.372l-9.616,13.603l-4.225-1.239L85.576,3.796L89.936,5.076z"/>
	</g>
	<g>
		<path fill="#FFFFFF" d="M60.691,9.862l3.226,24.242l-3.189-0.591l-1.475-11.92c-0.409-3.269-0.743-6.207-0.857-8.999l-0.067-0.012
			c-1.135,2.524-2.619,5.231-4.189,8.028L48.18,31.188l-3.155-0.584L57.435,9.26L60.691,9.862z"/>
	</g>
	<g>
		<path fill="#FFFFFF" d="M13.431,69.003c0.079-0.432,0.231-0.976,0.43-1.536c0.331-0.931,0.713-1.474,1.237-1.82
			c0.558-0.375,1.275-0.48,2.14-0.174c0.938,0.335,1.463,0.905,1.696,1.521c0.246,0.669,0.17,1.525-0.17,2.485
			c-0.204,0.573-0.385,0.969-0.52,1.232L13.431,69.003z M17.825,69.309c0.056-0.086,0.11-0.24,0.159-0.378
			c0.363-1,0.043-1.851-1.128-2.267c-1.015-0.368-1.766,0.037-2.103,0.989c-0.088,0.247-0.123,0.415-0.134,0.517L17.825,69.309z"/>
	</g>
</g>
</svg>
