<?xml version="1.0" encoding="utf-8"?>
<!-- Generator: Adobe Illustrator 16.0.0, SVG Export Plug-In . SVG Version: 6.00 Build 0)  -->
<!DOCTYPE svg PUBLIC "-//W3C//DTD SVG 1.1//EN" "http://www.w3.org/Graphics/SVG/1.1/DTD/svg11.dtd">
<svg version="1.1" id="Layer_1" xmlns="http://www.w3.org/2000/svg" xmlns:xlink="http://www.w3.org/1999/xlink" x="0px" y="0px"
	 width="100px" height="100px" viewBox="0 0 100 100" enable-background="new 0 0 100 100" xml:space="preserve">
<g>
	<g>
		<path fill="#FFFFFF" d="M46.587,42.757c0.052,0.46,0.037,1.4-0.412,2.488c-0.969,2.347-3.43,3.198-6.227,2.042
			c-2.74-1.132-4.063-3.677-3.023-6.192c0.372-0.901,0.96-1.582,1.325-1.826l0.608,0.603c-0.361,0.29-0.872,0.782-1.229,1.646
			c-0.899,2.177,0.6,4.027,2.646,4.872c2.384,0.985,4.428,0.291,5.204-1.586c0.364-0.882,0.361-1.565,0.34-2.101L46.587,42.757z"/>
	</g>
	<g>
		<path fill="#FFFFFF" d="M22.522,64.292c-0.099-0.438-0.167-1.32,0.24-2.304c0.875-2.121,3.555-2.702,6.788-1.366
			c3.169,1.309,4.875,3.82,3.937,6.093c-0.336,0.814-0.935,1.401-1.321,1.599l-0.734-0.621c0.378-0.241,0.907-0.659,1.229-1.438
			c0.813-1.968-1.03-3.841-3.396-4.817c-2.756-1.139-4.982-0.668-5.683,1.028c-0.33,0.798-0.264,1.44-0.193,1.946L22.522,64.292z"/>
	</g>
	<g>
		<path fill="#FFFFFF" d="M18.832,72.958c-0.245-0.376-0.614-1.18-0.574-2.244c0.086-2.292,2.397-3.767,5.893-3.636
			c3.426,0.128,5.897,1.893,5.805,4.35c-0.033,0.88-0.391,1.638-0.685,1.958l-0.904-0.328c0.271-0.357,0.622-0.932,0.654-1.775
			c0.08-2.128-2.298-3.246-4.856-3.341c-2.979-0.112-4.905,1.102-4.974,2.936c-0.033,0.862,0.251,1.441,0.493,1.892L18.832,72.958z"
			/>
	</g>
	<g>
		<path fill="#FFFFFF" d="M50.325,41.868c0.699,1.028,1.898,2.117,3.776,2.955c1.846,0.824,3.452,0.974,4.689,0.822l-0.496,1.112
			c-1.061,0.206-2.737,0.213-4.761-0.69c-2.031-0.918-3.139-2.155-3.705-3.086L50.325,41.868z"/>
	</g>
	<g>
		<path fill="#FFFFFF" d="M53.992,73.481c1.23-0.178,2.734-0.78,4.31-2.102c1.548-1.299,2.386-2.677,2.791-3.856l0.783,0.932
			c-0.279,1.044-1.006,2.554-2.704,3.979c-1.714,1.424-3.312,1.879-4.396,1.98L53.992,73.481z"/>
	</g>
	<g>
		<path fill="#FFFFFF" d="M56.524,76.509c1.23-0.178,2.734-0.781,4.309-2.103c1.549-1.299,2.387-2.677,2.792-3.857l0.783,0.933
			c-0.279,1.044-1.006,2.554-2.704,3.979c-1.715,1.424-3.312,1.879-4.396,1.98L56.524,76.509z"/>
	</g>
	<g>
		<path fill="#FFFFFF" d="M37.221,75.41c1.511,1.742,3.694,3.245,7.03,3.976c3.282,0.719,5.864,0.223,7.995-0.682l-0.279,1.272
			c-1.785,0.826-4.42,1.563-8.015,0.774c-3.627-0.814-5.717-2.567-7.01-4.068L37.221,75.41z"/>
	</g>
	<g>
		<path fill="#FFFFFF" d="M39.967,72.299c1.37,1.094,3.441,2.06,6.32,2.404c2.831,0.338,5.057-0.129,6.661-0.851l-0.204,1.704
			c-1.342,0.721-3.597,1.43-6.702,1.059c-3.118-0.39-5.128-1.593-6.279-2.611L39.967,72.299z"/>
	</g>
	<g>
		<path fill="#FFFFFF" d="M6.641,54.705c0.269,1.732,1.14,3.844,3.026,6.046c1.855,2.166,3.811,3.327,5.48,3.88l-1.304,1.118
			c-1.476-0.378-3.616-1.381-5.65-3.756c-2.033-2.396-2.698-4.643-2.856-6.171L6.641,54.705z"/>
	</g>
	<g>
		<path fill="#FFFFFF" d="M63.778,55.102c0.132-1.237-0.079-2.843-0.97-4.695c-0.875-1.823-2.003-2.975-3.046-3.66l1.098-0.527
			c0.942,0.528,2.225,1.606,3.186,3.605c0.955,2.013,1.001,3.673,0.831,4.75L63.778,55.102z"/>
	</g>
	<g>
		<path fill="#FFFFFF" d="M31.749,32.92c-1.128-0.523-2.717-0.839-4.758-0.591c-2.007,0.243-3.461,0.94-4.444,1.708L22.4,32.829
			c0.803-0.722,2.236-1.59,4.437-1.857c2.214-0.257,3.801,0.232,4.765,0.74L31.749,32.92z"/>
	</g>
	<g>
		<path fill="#FFFFFF" d="M17.934,35.033c-2.76,0.737-5.617,2.352-8.243,5.67c-2.583,3.263-3.431,6.407-3.581,9.271l-1.265-1.001
			c0.049-2.436,0.66-5.769,3.488-9.343c2.876-3.597,5.961-4.971,8.335-5.597L17.934,35.033z"/>
	</g>
	<g>
		<path fill="#FFFFFF" d="M36.072,76.054c-0.733-0.448-1.799-0.789-3.219-0.779c-1.396,0.009-2.449,0.374-3.185,0.823l-0.006-0.841
			c0.608-0.433,1.66-0.916,3.191-0.927c1.539-0.002,2.59,0.458,3.211,0.883L36.072,76.054z"/>
	</g>
	<g>
		<path fill="#FFFFFF" d="M65.335,60.796c0.422-0.748,0.727-1.825,0.667-3.244c-0.058-1.395-0.458-2.435-0.933-3.154l0.84-0.035
			c0.453,0.593,0.972,1.627,1.036,3.157c0.056,1.538-0.368,2.604-0.771,3.24L65.335,60.796z"/>
	</g>
	<g>
		<path fill="#FFFFFF" d="M6.087,55.711c-0.336,2.293-0.051,4.941,1.578,7.962c1.602,2.972,3.673,4.614,5.759,5.644l-1.152,0.621
			c-1.799-0.819-4.086-2.343-5.842-5.599c-1.757-3.298-1.791-6.039-1.495-8.008L6.087,55.711z"/>
	</g>
	<g>
		<path fill="#FFFFFF" d="M37.811,72.089c-0.432-0.735-1.205-1.535-2.453-2.192c-1.227-0.647-2.32-0.823-3.174-0.774l0.389-0.739
			c0.736-0.093,1.884-0.023,3.229,0.687c1.349,0.721,2.052,1.617,2.398,2.28L37.811,72.089z"/>
	</g>
	<g>
		<path fill="#EA9C37" d="M36.645,57.466l1.876-4.917l47.294,18.05l-1.876,4.917L36.645,57.466z"/>
	</g>
	<g>
		<path fill="#FFFFFF" d="M29.256,46.194l1.165,0.445l-3.587,9.399l-1.165-0.444L29.256,46.194z"/>
	</g>
	<g>
		<path fill="#EA9C37" d="M58.988,8.768l1.618,1.091l-45.718,67.85l-1.619-1.091L58.988,8.768z"/>
	</g>
	<g>
		<path fill="#EA9C37" d="M37.682,50.19c0.458-0.105,1.001-0.334,1.216-0.773c0.379-0.778-0.284-1.556-1.311-2.056
			c-1.087-0.53-1.822-0.483-2.741-0.058c-1.01,0.508-2.106,0.517-3.298-0.063c-1.416-0.691-2.399-1.853-1.931-2.814
			c0.219-0.45,0.67-0.698,1.144-0.784l0.706,0.584c-0.327,0.043-0.83,0.19-1.069,0.681c-0.304,0.624,0.337,1.341,1.24,1.782
			c1.026,0.5,1.648,0.373,2.526-0.022c1.005-0.498,2.035-0.578,3.533,0.153c1.684,0.82,2.494,2.025,2.006,3.027
			c-0.234,0.48-0.716,0.79-1.286,0.917L37.682,50.19z"/>
	</g>
	<g>
		<path fill="#EA9C37" d="M34.858,58.128c0.229,0.574,0.251,1.206-0.016,1.753c-0.557,1.143-2.05,1.339-3.733,0.519
			c-1.499-0.731-2.038-1.658-2.211-2.867c-0.185-1.028-0.443-1.644-1.47-2.145c-0.903-0.44-1.886-0.458-2.232,0.254
			c-0.272,0.56-0.1,1.091,0.056,1.398l-0.909-0.169c-0.207-0.461-0.264-1.023-0.013-1.536c0.534-1.096,2.093-1.116,3.509-0.426
			c1.191,0.581,1.83,1.512,1.997,2.734c0.183,1.084,0.576,1.738,1.664,2.268c1.027,0.5,2.073,0.491,2.505-0.395
			c0.245-0.502,0.117-1.127-0.064-1.59L34.858,58.128z"/>
	</g>
	<g>
		<path fill="#FFFFFF" d="M89.916,65.857c1.045-0.341,2.148-0.378,3.318-0.163c2.999,0.549,5.058,3.127,4.438,6.518
			c-0.669,3.656-3.793,6.367-7.833,5.627c-3.164-0.579-4.775-3.131-4.238-6.059c0.497-2.715,2.327-3.939,3.881-3.655
			c0.64,0.117,1.266,0.727,0.92,1.893l0.073,0.013c0.903-1.008,1.86-1.383,3.03-1.169c0.987,0.18,1.77,1.168,1.523,2.517
			c-0.41,2.236-2.666,3.933-5.134,3.48c-0.769-0.141-1.327-0.39-1.767-0.672l1.24-3.057c0.612-1.484,0.486-2.241-0.19-2.364
			c-1.018-0.223-2.347,0.946-2.724,3.004c-0.5,2.734,0.783,4.913,3.634,5.435c3.09,0.566,6.07-1.365,6.752-5.092
			c0.54-2.946-1.136-5.252-3.823-5.745c-1.115-0.204-2.126-0.151-2.958,0.155L89.916,65.857z M89.076,73.847
			c0.207,0.111,0.553,0.285,1.102,0.385c1.865,0.342,3.691-1.067,4.049-3.019c0.156-0.852-0.203-1.578-1.135-1.749
			c-1.28-0.234-2.709,1.174-3.155,2.266L89.076,73.847z"/>
	</g>
</g>
</svg>
