<?xml version="1.0" encoding="utf-8"?>
<!-- Generator: Adobe Illustrator 16.0.0, SVG Export Plug-In . SVG Version: 6.00 Build 0)  -->
<!DOCTYPE svg PUBLIC "-//W3C//DTD SVG 1.1//EN" "http://www.w3.org/Graphics/SVG/1.1/DTD/svg11.dtd">
<svg version="1.1" xmlns="http://www.w3.org/2000/svg" xmlns:xlink="http://www.w3.org/1999/xlink" x="0px" y="0px"
	 width="770.762px" height="546.867px" viewBox="0 0 770.762 546.867" enable-background="new 0 0 770.762 546.867"
	 xml:space="preserve">
<g id="Layer_1">
	<rect x="333.566" y="120.535" fill="#ED9D36" width="341.967" height="174.041"/>
	<rect x="333.566" y="120.535" fill="none" width="341.967" height="174.041"/>
	<rect x="676.793" y="120.535" fill="#ED9D36" width="93.338" height="174.041"/>
	<g>
		<g>
			<defs>
				<rect id="SVGID_1_" width="770.762" height="546.867"/>
			</defs>
			<clipPath id="SVGID_2_">
				<use xlink:href="#SVGID_1_"  overflow="visible"/>
			</clipPath>
			<rect x="676.793" y="120.535" clip-path="url(#SVGID_2_)" fill="none" width="93.34" height="174.041"/>
		</g>
	</g>
	<rect x="89.854" y="380.813" fill="#ED9D36" width="42.245" height="96.546"/>
	<rect x="89.854" y="380.813" fill="none" width="42.245" height="96.546"/>
	<rect x="332.745" y="0.63" fill="#ED9D36" width="53.267" height="82.648"/>
	<g>
		<g>
			<defs>
				<rect id="SVGID_3_" width="770.762" height="546.867"/>
			</defs>
			<clipPath id="SVGID_4_">
				<use xlink:href="#SVGID_3_"  overflow="visible"/>
			</clipPath>
			<rect x="332.745" y="0.63" clip-path="url(#SVGID_4_)" fill="none" width="53.267" height="82.648"/>
		</g>
	</g>
	<rect x="388.049" y="0.63" fill="#ED9D36" width="53.27" height="82.648"/>
	<g>
		<g>
			<defs>
				<rect id="SVGID_5_" width="770.762" height="546.867"/>
			</defs>
			<clipPath id="SVGID_6_">
				<use xlink:href="#SVGID_5_"  overflow="visible"/>
			</clipPath>
			<rect x="388.049" y="0.63" clip-path="url(#SVGID_6_)" fill="none" width="53.27" height="82.648"/>
		</g>
	</g>
	<polygon fill="#ED9D36" points="132.389,0.63 132.389,524.068 133.359,524.068 133.359,546.236 770.133,546.236 770.133,512.14 
		331.227,512.14 331.227,119.152 770.133,119.152 770.133,85.057 331.227,85.057 331.227,0.63 	"/>
	<g>
		<g>
			<defs>
				<rect id="SVGID_7_" width="770.762" height="546.867"/>
			</defs>
			<clipPath id="SVGID_8_">
				<use xlink:href="#SVGID_7_"  overflow="visible"/>
			</clipPath>
			<polygon clip-path="url(#SVGID_8_)" fill="none" points="331.227,512.14 331.227,119.152 770.133,119.152 770.133,85.057 
				331.227,85.057 331.227,0.63 132.389,0.63 132.389,524.068 133.359,524.068 133.359,546.236 770.133,546.236 770.133,512.14 			
				"/>
		</g>
	</g>
	<rect y="1.417" fill="#ED9D36" width="136.716" height="207.555"/>
	<rect x="533.776" y="295.835" fill="#ED9D36" width="236.357" height="214.98"/>
	<g>
		<g>
			<defs>
				<rect id="SVGID_9_" width="770.762" height="546.867"/>
			</defs>
			<clipPath id="SVGID_10_">
				<use xlink:href="#SVGID_9_"  overflow="visible"/>
			</clipPath>
			<rect x="533.776" y="295.835" clip-path="url(#SVGID_10_)" fill="none" width="236.357" height="214.98"/>
		</g>
	</g>
	<rect x="333.566" y="295.835" fill="#ED9D36" width="198.948" height="214.98"/>
	<rect x="333.566" y="295.835" fill="none" width="198.948" height="214.98"/>
	<rect x="394.979" y="103.778" fill="#ED9D36" width="28.654" height="39.315"/>
	<rect x="349.167" y="65.881" fill="#ED9D36" width="28.654" height="39.314"/>
	<rect x="400.356" y="64.211" fill="#ED9D36" width="28.654" height="39.314"/>
	<rect x="318.609" y="189.315" fill="#ED9D36" width="28.653" height="32.761"/>
	<rect x="612.467" y="103.524" fill="#ED9D36" width="28.654" height="32.76"/>
	<rect x="471.225" y="495.068" fill="#ED9D36" width="28.654" height="32.76"/>
	<rect x="316.527" y="367.205" fill="#ED9D36" width="28.653" height="32.76"/>
	<rect x="718.85" y="495.068" fill="#ED9D36" width="28.65" height="32.76"/>
	<rect x="563.891" y="495.068" fill="#ED9D36" width="28.654" height="32.76"/>
	<rect x="710.348" y="103.524" fill="#ED9D36" width="28.654" height="32.76"/>
</g>


<!-- EDIT HERE -->
<g id="Glow">
	<polygon id="FC" opacity="0.3" fill-rule="evenodd" clip-rule="evenodd" fill="#FFFFFF" points="0,1.417 0,208.972 
		132.389,208.972 132.389,546.236 330.854,546.236 330.854,208.972 330.854,205.696 330.854,1.417 	"/>
	
		<rect id="RG" x="89.854" y="380.813" opacity="0.3" fill-rule="evenodd" clip-rule="evenodd" fill="#FFFFFF" width="40.027" height="96.546"/>
	
		<rect id="A1" x="332.936" y="119.152" opacity="0.3" fill-rule="evenodd" clip-rule="evenodd" fill="#FFFFFF" width="343.857" height="175.424"/>
	
		<rect id="A2" x="332.936" y="294.576" opacity="0.3" fill-rule="evenodd" clip-rule="evenodd" fill="#FFFFFF" width="200.84" height="217.564"/>
	
		<rect id="SH" x="533.776" y="294.576" opacity="0.3" fill-rule="evenodd" clip-rule="evenodd" fill="#FFFFFF" width="236.357" height="216.24"/>
	
		<rect id="CR" x="676.793" y="119.152" opacity="0.3" fill-rule="evenodd" clip-rule="evenodd" fill="#FFFFFF" width="93.34" height="175.424"/>
	
		<rect id="Restrooms" x="330.854" y="1.417" opacity="0.3" fill-rule="evenodd" clip-rule="evenodd" fill="#FFFFFF" width="110.465" height="81.861"/>
</g>
<!-- EDIT END -->

<g id="Layer_2">
	<text transform="matrix(1 0 0 1 96.2295 410.3452)" fill="#FFFFFF" font-family="'ArialMT'" font-size="20.161">RG</text>
	<text transform="matrix(1 0 0 1 485.5581 206.1753)" fill="#FFFFFF" font-family="'ArialMT'" font-size="20.161">A1</text>
	<text transform="matrix(1 0 0 1 58.2466 96.7007)" fill="#FFFFFF" font-family="'ArialMT'" font-size="20.161">FC</text>
	<text transform="matrix(1 0 0 1 417.6558 396.394)" fill="#FFFFFF" font-family="'ArialMT'" font-size="20.161">A2</text>
	<text transform="matrix(1 0 0 1 638.1753 396.394)" fill="#FFFFFF" font-family="'ArialMT'" font-size="20.161">SH</text>
	<text transform="matrix(1 0 0 1 708.9214 206.1948)" fill="#FFFFFF" font-family="'ArialMT'" font-size="20.161">CR</text>
	<g>
		<path fill-rule="evenodd" clip-rule="evenodd" fill="#FFFFFF" d="M366.665,46.652c-1.289,0-2.507,0-3.766,0
			c0,0.184,0,0.337,0,0.489c0,3.448-0.018,6.897,0.009,10.346c0.01,1.216-1.058,1.703-1.892,1.405
			c-0.507-0.181-0.821-0.537-0.88-1.086c-0.02-0.181-0.021-0.363-0.021-0.545c-0.001-3.396-0.001-6.793-0.001-10.189
			c0-0.153,0-0.307,0-0.482c-0.488,0-0.937,0-1.444,0c0,0.153,0,0.303,0,0.453c0,3.487,0.003,6.976-0.002,10.463
			c-0.002,1.069-0.877,1.713-1.871,1.394c-0.591-0.19-0.931-0.679-0.933-1.381c-0.006-1.652-0.002-3.306-0.002-4.958
			c0-1.952,0-3.903,0-5.896c-1.241,0-2.469,0-3.764,0c1.307-4.698,2.597-9.343,3.907-14.054c-0.42,0-0.805-0.021-1.183,0.017
			c-0.087,0.01-0.185,0.218-0.225,0.351c-0.736,2.45-1.464,4.903-2.195,7.355c-0.232,0.78-0.654,1.164-1.273,1.167
			c-0.655,0.003-1.187-0.465-1.215-1.12c-0.013-0.292,0.033-0.6,0.117-0.881c0.82-2.737,1.653-5.471,2.485-8.205
			c0.556-1.826,2.01-2.905,3.922-2.908c1.874-0.003,3.748-0.004,5.622,0c2.02,0.005,3.693,1.246,4.282,3.175
			c0.811,2.659,1.627,5.316,2.414,7.982c0.102,0.345,0.116,0.749,0.047,1.102c-0.094,0.482-0.458,0.775-0.955,0.854
			c-0.516,0.08-0.924-0.114-1.195-0.555c-0.114-0.185-0.195-0.396-0.258-0.605c-0.735-2.451-1.467-4.902-2.188-7.357
			c-0.082-0.28-0.197-0.41-0.505-0.38s-0.62,0.007-0.98,0.007C364.038,37.294,365.342,41.941,366.665,46.652z"/>
		<path fill-rule="evenodd" clip-rule="evenodd" fill="#FFFFFF" d="M362.424,24.693c0.002,1.675-1.343,3.034-3.013,3.044
			c-1.679,0.011-3.067-1.368-3.063-3.044c0.003-1.672,1.356-3.031,3.024-3.039C361.069,21.647,362.422,22.994,362.424,24.693z"/>
	</g>
	<g>
		<path fill-rule="evenodd" clip-rule="evenodd" fill="#FFFFFF" d="M420.278,32.572c-0.494,0-0.933,0-1.445,0
			c0,0.162,0,0.323,0,0.484c-0.004,7.977-0.008,15.953-0.016,23.93c0,0.246,0.002,0.501-0.057,0.736
			c-0.201,0.811-0.97,1.336-1.787,1.249c-0.875-0.092-1.521-0.758-1.533-1.633c-0.019-1.327-0.008-2.654-0.008-3.981
			c0-3.305,0-6.61,0-9.915c0-0.153,0-0.307,0-0.481c-0.49,0-0.939,0-1.458,0c0,0.143,0,0.292,0,0.44
			c0,4.594,0.002,9.187-0.002,13.78c-0.001,1.178-0.892,1.955-2.003,1.769c-0.738-0.124-1.312-0.748-1.368-1.496
			c-0.015-0.181-0.011-0.363-0.011-0.546c-0.001-7.938-0.001-15.875-0.001-23.813c0-0.165,0-0.331,0-0.517c-0.504,0-0.964,0-1.468,0
			c0,0.157,0,0.297,0,0.436c0,2.811,0.002,5.622-0.004,8.433c0,0.244-0.016,0.497-0.08,0.73c-0.15,0.554-0.598,0.863-1.162,0.843
			c-0.537-0.019-0.979-0.396-1.088-0.945c-0.038-0.19-0.053-0.388-0.054-0.582c-0.003-3.006-0.013-6.012,0.001-9.018
			c0.01-2.055,1.203-3.603,3.08-4.015c0.353-0.078,0.723-0.098,1.086-0.098c2.523-0.002,5.049,0.006,7.572,0.016
			c2.518,0.011,4.162,1.669,4.164,4.199c0.004,2.954,0.002,5.907,0,8.861c-0.001,0.22-0.003,0.446-0.053,0.658
			c-0.145,0.624-0.611,0.975-1.207,0.937c-0.56-0.035-0.996-0.453-1.077-1.054c-0.028-0.205-0.022-0.416-0.022-0.624
			c-0.001-2.771,0-5.543,0-8.315C420.278,32.898,420.278,32.758,420.278,32.572z"/>
		<path fill-rule="evenodd" clip-rule="evenodd" fill="#FFFFFF" d="M414.696,27.712c-1.678-0.002-3.02-1.338-3.031-3.02
			c-0.012-1.679,1.371-3.067,3.044-3.058c1.673,0.009,3.022,1.359,3.03,3.031C417.745,26.362,416.395,27.713,414.696,27.712z"/>
	</g>
</g>
</svg>
