<?xml version="1.0" encoding="utf-8"?>
<!-- Generator: Adobe Illustrator 16.0.0, SVG Export Plug-In . SVG Version: 6.00 Build 0)  -->
<!DOCTYPE svg PUBLIC "-//W3C//DTD SVG 1.1//EN" "http://www.w3.org/Graphics/SVG/1.1/DTD/svg11.dtd">
<svg version="1.1" id="Layer_1" xmlns="http://www.w3.org/2000/svg" xmlns:xlink="http://www.w3.org/1999/xlink" x="0px" y="0px"
	 width="706.776px" height="274.008px" viewBox="0 0 706.776 274.008" enable-background="new 0 0 706.776 274.008"
	 xml:space="preserve">
<g>
	<g>
		<path fill="#FFFFFF" d="M88.232,191.108c-1.023,12.996-10.408,17.955-18.842,17.292c-9.443-0.743-16.175-8.286-15.301-19.396
			c0.926-11.762,9.109-18.058,18.77-17.298C82.879,172.496,89.078,180.362,88.232,191.108z M60.521,189.292
			c-0.605,7.697,3.335,13.851,9.535,14.339c6.056,0.477,11.048-4.901,11.671-12.815c0.468-5.954-1.893-13.737-9.39-14.327
			C64.84,175.897,61.047,182.612,60.521,189.292z"/>
	</g>
</g>
<g>
	<g>
		<path fill="#FFFFFF" d="M61.03,188.365c0.365-4.631,3.727-7.641,8.076-7.298c4.349,0.342,7.076,3.831,6.711,8.462
			c-0.354,4.506-3.479,7.66-8.076,7.298C63.391,196.485,60.675,192.871,61.03,188.365z"/>
	</g>
</g>
<g>
	<g>
		<path fill="#EA9C37" d="M120.65,233.638l-1.629,6.955l-55.083-12.903l1.63-6.955L120.65,233.638z"/>
	</g>
</g>
<g>
	<g>
		<path fill="#EA9C37" d="M117.346,254.166l-2.012,5.677L45.701,235.17l2.011-5.676L117.346,254.166z"/>
	</g>
</g>
<g>
	<g>
		<path fill="#EA9C37" d="M98.477,268.891l-2.818,5.117l-39.902-21.979l2.818-5.117L98.477,268.891z"/>
	</g>
</g>
<g>
	<g>
		<path fill="#FFFFFF" d="M232.673,5.358l9.935,110.662l-14.296-3.265l-4.381-54.394c-1.234-14.916-2.175-28.318-2.155-41.019
			l-0.304-0.069c-5.613,11.263-12.838,23.283-20.473,35.691l-28.961,46.939l-14.144-3.23l60.179-94.65L232.673,5.358z"/>
	</g>
</g>
<g>
	<g>
		<path fill="#FFFFFF" d="M137.878,20.778l30.283,75.038l-10.644,0.745l-14.535-36.989c-4.01-10.136-7.494-19.28-10.162-28.137
			l-0.226,0.016c-1.53,9.036-4.023,18.94-6.72,29.203l-10.254,38.838l-10.531,0.737l21.918-78.69L137.878,20.778z"/>
	</g>
</g>
<g>
	<g>
		<path fill="#FFFFFF" d="M0,194.251c0.314-1.175,0.855-2.647,1.527-4.154c1.119-2.507,2.291-3.932,3.813-4.779
			c1.623-0.919,3.622-1.061,5.937-0.027c2.51,1.12,3.83,2.813,4.332,4.563c0.527,1.902,0.129,4.26-1.024,6.844
			c-0.69,1.547-1.276,2.6-1.705,3.301L0,194.251z M12.036,196.029c0.172-0.229,0.355-0.64,0.521-1.012
			c1.226-2.693,0.533-5.115-2.6-6.513c-2.714-1.234-4.87-0.271-6.015,2.294c-0.297,0.665-0.431,1.122-0.486,1.403L12.036,196.029z"
			/>
	</g>
</g>
<g>
	<path fill="#FFFFFF" d="M283.101,22.023v91.058h-11.754V22.023H283.101z"/>
	<path fill="#FFFFFF" d="M323.901,113.081V74.442l-28.776-52.419H308.5l12.834,25.128c3.513,6.891,6.215,12.43,9.052,18.779h0.271
		c2.567-5.944,5.674-11.889,9.187-18.779l13.105-25.128h13.375L335.79,74.307v38.774H323.901z"/>
	<path fill="#FFFFFF" d="M386.182,84.439l-9.458,28.642h-12.159l30.938-91.058h14.186l31.073,91.058h-12.564l-9.727-28.642H386.182z
		 M416.039,75.253l-8.917-26.21c-2.026-5.944-3.378-11.349-4.729-16.617h-0.271c-1.351,5.404-2.837,10.943-4.594,16.482
		l-8.916,26.345H416.039z"/>
	<path fill="#FFFFFF" d="M447.923,106.191l50.528-73.9v-0.405h-46.205v-9.862h61.472v7.16l-50.258,73.63v0.405h50.933v9.862h-66.47
		V106.191z"/>
	<path fill="#FFFFFF" d="M543.574,84.439l-9.457,28.642h-12.159l30.938-91.058h14.186l31.073,91.058H585.59l-9.727-28.642H543.574z
		 M573.432,75.253l-8.917-26.21c-2.026-5.944-3.378-11.349-4.729-16.617h-0.271c-1.351,5.404-2.837,10.943-4.594,16.482
		l-8.916,26.345H573.432z"/>
	<path fill="#FFFFFF" d="M611.53,22.023h11.754v43.908h0.405c2.432-3.513,4.863-6.755,7.16-9.727l27.831-34.181h14.591
		l-32.965,38.639l35.532,52.419h-13.916l-29.992-44.719l-8.646,9.998v34.721H611.53V22.023z"/>
	<path fill="#FFFFFF" d="M696.509,22.023v91.058h-11.754V22.023H696.509z"/>
</g>
<g>
	<path fill="#ED9D36" d="M267.755,124.368h17.425v3.504h-13.249v10.753h12.241v3.456h-12.241v14.642h-4.176V124.368z"/>
	<path fill="#ED9D36" d="M307.788,124.368v32.355h-4.176v-32.355H307.788z"/>
	<path fill="#ED9D36" d="M327.515,124.368h4.176v28.85h13.825v3.505h-18.001V124.368z"/>
	<path fill="#ED9D36" d="M389.916,142.514c-0.239-4.513-0.527-9.937-0.479-13.969h-0.144c-1.104,3.792-2.449,7.825-4.08,12.289
		L379.5,156.53h-3.168l-5.232-15.409c-1.536-4.56-2.833-8.736-3.745-12.577h-0.096c-0.096,4.032-0.336,9.457-0.624,14.305
		l-0.864,13.873h-3.984l2.256-32.355h5.329l5.52,15.649c1.344,3.984,2.448,7.537,3.265,10.897h0.144
		c0.816-3.265,1.968-6.816,3.408-10.897l5.761-15.649h5.328l2.016,32.355h-4.08L389.916,142.514z"/>
	<path fill="#ED9D36" d="M436.377,124.368h17.426v3.504h-13.25v10.753h12.241v3.456h-12.241v14.642h-4.176V124.368z"/>
	<path fill="#ED9D36" d="M488.986,141.554h-12.577v11.664h14.018v3.505h-18.193v-32.355h17.474v3.504h-13.298v10.225h12.577V141.554
		z"/>
	<path fill="#ED9D36" d="M507.752,151.634c1.872,1.152,4.608,2.113,7.488,2.113c4.272,0,6.769-2.257,6.769-5.521
		c0-3.023-1.728-4.752-6.096-6.432c-5.281-1.873-8.545-4.609-8.545-9.169c0-5.041,4.176-8.785,10.465-8.785
		c3.313,0,5.712,0.768,7.152,1.584l-1.152,3.408c-1.056-0.576-3.216-1.536-6.145-1.536c-4.416,0-6.097,2.641-6.097,4.849
		c0,3.024,1.969,4.512,6.433,6.241c5.473,2.111,8.257,4.752,8.257,9.504c0,4.992-3.696,9.313-11.329,9.313
		c-3.12,0-6.528-0.912-8.256-2.063L507.752,151.634z"/>
	<path fill="#ED9D36" d="M550.617,127.92h-9.841v-3.552h23.954v3.552h-9.889v28.803h-4.225V127.92z"/>
	<path fill="#ED9D36" d="M584.984,124.368v32.355h-4.176v-32.355H584.984z"/>
	<path fill="#ED9D36" d="M611.816,156.723l-10.561-32.355h4.512l5.041,15.938c1.392,4.368,2.592,8.305,3.456,12.097h0.096
		c0.912-3.744,2.257-7.825,3.696-12.05l5.473-15.985h4.465l-11.569,32.355H611.816z"/>
	<path fill="#ED9D36" d="M645.849,146.546l-3.36,10.177h-4.32l10.993-32.355h5.04l11.041,32.355h-4.465l-3.456-10.177H645.849z
		 M656.457,143.281l-3.168-9.313c-0.72-2.112-1.2-4.032-1.68-5.905h-0.097c-0.479,1.92-1.008,3.889-1.632,5.857l-3.168,9.36H656.457
		z"/>
	<path fill="#ED9D36" d="M682.472,124.368h4.176v28.85h13.825v3.505h-18.001V124.368z"/>
</g>
</svg>
